<svg width="191" height="191" viewBox="0 0 191 191" fill="none" xmlns="http://www.w3.org/2000/svg">
<path d="M95.5 0C80.4291 -1.79719e-07 65.5722 3.56683 52.1439 10.4089C38.7156 17.2509 27.0973 27.1739 18.2389 39.3665L37.5542 53.3999C44.198 44.2554 52.9117 36.8132 62.9829 31.6817C73.0541 26.5501 84.1968 23.875 95.5 23.875V0Z" fill="#FFBD2D"/>
<path d="M18.5886 38.8883C8.10527 53.1307 1.78254 70.0043 0.324937 87.6287C-1.13266 105.253 2.33213 122.936 10.3332 138.707L31.6249 127.905C25.6241 116.077 23.0255 102.815 24.1187 89.5965C25.2119 76.3782 29.954 63.723 37.8164 53.0412L18.5886 38.8883Z" fill="#B448C5"/>
<path d="M10.3711 138.782C18.0762 153.937 29.6874 166.76 44.0053 175.927C58.3232 185.094 74.8287 190.273 91.8173 190.929C108.806 191.585 125.661 187.693 140.643 179.657C155.625 171.62 168.19 159.73 177.04 145.214C185.89 130.698 190.705 114.082 190.987 97.0834C191.269 80.0845 187.008 63.3186 178.644 48.5171C170.28 33.7156 158.116 21.4153 143.409 12.8864C128.702 4.35755 111.984 -0.0905844 94.9833 0.00139773L95.1125 23.876C107.863 23.8071 120.401 27.1432 131.432 33.5398C142.462 39.9364 151.585 49.1617 157.858 60.2628C164.131 71.3639 167.327 83.9384 167.115 96.6875C166.904 109.437 163.293 121.898 156.655 132.785C150.017 143.672 140.594 152.59 129.357 158.617C118.121 164.645 105.479 167.563 92.738 167.072C79.9966 166.58 67.6174 162.696 56.8789 155.82C46.1405 148.945 37.4322 139.328 31.6533 127.961L10.3711 138.782Z" fill="#64CFF6"/>
</svg>
