<svg width="17" height="19" viewBox="0 0 17 19" fill="none" xmlns="http://www.w3.org/2000/svg">
<path d="M14.125 3.83333L13.3742 15.1788C13.3084 16.1725 13.2755 16.6694 13.0625 17.0461C12.8749 17.3778 12.592 17.6444 12.251 17.8109C11.8638 18 11.3694 18 10.3808 18H6.61916C5.63057 18 5.13627 18 4.74896 17.8109C4.40797 17.6444 4.12505 17.3778 3.93749 17.0461C3.72444 16.6694 3.69156 16.1725 3.62581 15.1788L2.875 3.83333M1 3.83333H16M12.25 3.83333L11.9963 3.06651C11.7504 2.3234 11.6274 1.95185 11.3994 1.67715C11.198 1.43457 10.9395 1.2468 10.6473 1.13107C10.3165 1 9.92781 1 9.15025 1H7.84975C7.07219 1 6.6835 1 6.35267 1.13107C6.06055 1.2468 5.80195 1.43457 5.60058 1.67715C5.37255 1.95185 5.24961 2.3234 5.00373 3.06651L4.75 3.83333" stroke="#F9F9F9" stroke-width="2" stroke-linecap="round" stroke-linejoin="round"/>
</svg>
