<svg width="897" height="321" viewBox="0 0 897 321" fill="none" xmlns="http://www.w3.org/2000/svg">
<path d="M65.5507 318H64.3177V308.912H62.1501C61.5999 308.912 61.1575 308.996 60.8227 309.165C60.488 309.331 60.2443 309.567 60.0919 309.871C59.9394 310.176 59.8632 310.533 59.8632 310.94C59.8632 311.348 59.9378 311.699 60.0869 311.994C60.2394 312.286 60.4813 312.511 60.8128 312.67C61.1475 312.83 61.5867 312.909 62.1302 312.909H64.8746V314.023H62.0905C61.3016 314.023 60.6537 313.892 60.1466 313.63C59.6395 313.365 59.2633 313 59.018 312.536C58.7728 312.072 58.6501 311.54 58.6501 310.94C58.6501 310.34 58.7728 309.805 59.018 309.335C59.2633 308.864 59.6411 308.494 60.1515 308.226C60.662 307.954 61.3149 307.818 62.1103 307.818H65.5507V318ZM60.7581 313.426H62.1501L59.6842 318H58.2524L60.7581 313.426ZM72.9745 313.645V314.739H68.7586V313.645H72.9745ZM69.037 310.364V318H67.8637V310.364H69.037ZM73.8694 310.364V318H72.6961V310.364H73.8694ZM76.0122 318V310.364H79.1343C79.9563 310.364 80.6092 310.549 81.0931 310.92C81.577 311.292 81.819 311.782 81.819 312.392C81.819 312.856 81.6814 313.216 81.4063 313.471C81.1312 313.723 80.7783 313.893 80.3474 313.983C80.6291 314.023 80.9025 314.122 81.1677 314.281C81.4362 314.44 81.6582 314.659 81.8339 314.938C82.0096 315.213 82.0974 315.551 82.0974 315.952C82.0974 316.343 81.998 316.692 81.7991 317.001C81.6002 317.309 81.3152 317.553 80.944 317.732C80.5728 317.911 80.1286 318 79.6116 318H76.0122ZM77.1258 316.926H79.6116C80.0159 316.926 80.3325 316.83 80.5612 316.638C80.7899 316.446 80.9042 316.184 80.9042 315.852C80.9042 315.458 80.7899 315.148 80.5612 314.923C80.3325 314.694 80.0159 314.58 79.6116 314.58H77.1258V316.926ZM77.1258 313.565H79.1343C79.4492 313.565 79.7193 313.522 79.9447 313.436C80.1701 313.347 80.3424 313.221 80.4617 313.058C80.5844 312.893 80.6457 312.697 80.6457 312.472C80.6457 312.15 80.5114 311.898 80.243 311.716C79.9745 311.53 79.605 311.438 79.1343 311.438H77.1258V313.565ZM86.1206 318.179C85.6367 318.179 85.1976 318.088 84.8032 317.906C84.4088 317.72 84.0955 317.453 83.8635 317.105C83.6315 316.754 83.5155 316.33 83.5155 315.832C83.5155 315.395 83.6017 315.04 83.7741 314.768C83.9464 314.493 84.1768 314.278 84.4651 314.122C84.7535 313.966 85.0716 313.85 85.4197 313.774C85.771 313.695 86.124 313.632 86.4786 313.585C86.9426 313.526 87.3188 313.481 87.6072 313.451C87.8988 313.418 88.1109 313.363 88.2435 313.287C88.3794 313.211 88.4473 313.078 88.4473 312.889V312.849C88.4473 312.359 88.3131 311.978 88.0447 311.706C87.7795 311.434 87.3768 311.298 86.8366 311.298C86.2764 311.298 85.8373 311.421 85.5191 311.666C85.2009 311.911 84.9772 312.173 84.8479 312.452L83.7343 312.054C83.9331 311.59 84.1983 311.229 84.5297 310.97C84.8645 310.708 85.2291 310.526 85.6235 310.423C86.0212 310.317 86.4123 310.264 86.7968 310.264C87.042 310.264 87.3238 310.294 87.642 310.354C87.9634 310.41 88.2733 310.528 88.5716 310.707C88.8732 310.886 89.1235 311.156 89.3223 311.517C89.5212 311.878 89.6206 312.362 89.6206 312.969V318H88.4473V316.966H88.3877C88.3081 317.132 88.1756 317.309 87.99 317.498C87.8044 317.687 87.5574 317.848 87.2492 317.98C86.941 318.113 86.5648 318.179 86.1206 318.179ZM86.2996 317.125C86.7636 317.125 87.1547 317.034 87.4729 316.852C87.7944 316.669 88.0364 316.434 88.1988 316.146C88.3645 315.857 88.4473 315.554 88.4473 315.236V314.162C88.3976 314.222 88.2883 314.276 88.1192 314.326C87.9535 314.372 87.7613 314.414 87.5425 314.45C87.3271 314.483 87.1166 314.513 86.9111 314.54C86.7089 314.563 86.5449 314.583 86.4189 314.599C86.114 314.639 85.829 314.704 85.5638 314.793C85.302 314.879 85.0899 315.01 84.9275 315.186C84.7684 315.358 84.6888 315.594 84.6888 315.892C84.6888 316.3 84.8396 316.608 85.1412 316.817C85.4462 317.022 85.8323 317.125 86.2996 317.125ZM91.7622 320.864V310.364H92.8957V311.577H93.0349C93.1211 311.444 93.2404 311.275 93.3928 311.07C93.5486 310.861 93.7707 310.675 94.059 310.513C94.3507 310.347 94.7451 310.264 95.2423 310.264C95.8853 310.264 96.452 310.425 96.9426 310.746C97.4331 311.068 97.8159 311.524 98.091 312.114C98.3661 312.704 98.5036 313.4 98.5036 314.202C98.5036 315.01 98.3661 315.711 98.091 316.305C97.8159 316.895 97.4347 317.352 96.9475 317.677C96.4603 317.998 95.8985 318.159 95.2622 318.159C94.7716 318.159 94.3789 318.078 94.0839 317.915C93.7889 317.75 93.5619 317.562 93.4028 317.354C93.2437 317.142 93.1211 316.966 93.0349 316.827H92.9355V320.864H91.7622ZM92.9156 314.182C92.9156 314.759 93.0001 315.267 93.1691 315.708C93.3382 316.146 93.5851 316.489 93.9099 316.737C94.2347 316.982 94.6324 317.105 95.1031 317.105C95.5936 317.105 96.0029 316.976 96.331 316.717C96.6625 316.455 96.9111 316.104 97.0768 315.663C97.2458 315.219 97.3303 314.725 97.3303 314.182C97.3303 313.645 97.2475 313.161 97.0818 312.73C96.9194 312.296 96.6724 311.953 96.341 311.701C96.0129 311.446 95.6002 311.318 95.1031 311.318C94.6258 311.318 94.2248 311.439 93.8999 311.681C93.5751 311.92 93.3299 312.254 93.1641 312.685C92.9984 313.113 92.9156 313.612 92.9156 314.182ZM101.308 313.128H103.495C104.39 313.128 105.074 313.355 105.548 313.809C106.022 314.263 106.259 314.838 106.259 315.534C106.259 315.991 106.153 316.407 105.941 316.782C105.729 317.153 105.417 317.45 105.006 317.672C104.595 317.891 104.092 318 103.495 318H100.293V310.364H101.467V316.906H103.495C103.959 316.906 104.34 316.784 104.639 316.538C104.937 316.293 105.086 315.978 105.086 315.594C105.086 315.189 104.937 314.86 104.639 314.604C104.34 314.349 103.959 314.222 103.495 314.222H101.308V313.128Z" fill="#A3A3A3"/>
<path d="M135.161 309.031H136.771C137.527 309.031 138.198 309.2 138.785 309.538C139.371 309.876 139.832 310.347 140.167 310.95C140.502 311.554 140.669 312.253 140.669 313.048C140.669 313.844 140.502 314.545 140.167 315.151C139.832 315.758 139.371 316.232 138.785 316.573C138.198 316.915 137.527 317.085 136.771 317.085H135.161C134.405 317.085 133.734 316.916 133.147 316.578C132.56 316.24 132.1 315.769 131.765 315.166C131.43 314.563 131.263 313.864 131.263 313.068C131.263 312.273 131.43 311.572 131.765 310.965C132.1 310.359 132.56 309.885 133.147 309.543C133.734 309.202 134.405 309.031 135.161 309.031ZM135.161 310.125C134.584 310.125 134.097 310.246 133.699 310.488C133.304 310.73 133.004 311.071 132.799 311.512C132.597 311.953 132.496 312.472 132.496 313.068C132.496 313.658 132.597 314.172 132.799 314.609C133.004 315.047 133.304 315.387 133.699 315.629C134.097 315.871 134.584 315.991 135.161 315.991H136.771C137.348 315.991 137.834 315.871 138.228 315.629C138.626 315.387 138.926 315.045 139.128 314.604C139.333 314.164 139.436 313.645 139.436 313.048C139.436 312.458 139.333 311.945 139.128 311.507C138.926 311.07 138.626 310.73 138.228 310.488C137.834 310.246 137.348 310.125 136.771 310.125H135.161ZM136.592 307.639V318.418H135.359V307.639H136.592ZM145.777 318.159C145.042 318.159 144.407 317.997 143.873 317.672C143.343 317.344 142.934 316.886 142.645 316.3C142.36 315.71 142.218 315.024 142.218 314.241C142.218 313.459 142.36 312.77 142.645 312.173C142.934 311.573 143.335 311.106 143.848 310.771C144.365 310.433 144.969 310.264 145.658 310.264C146.056 310.264 146.449 310.33 146.836 310.463C147.224 310.596 147.577 310.811 147.895 311.109C148.213 311.404 148.467 311.795 148.656 312.283C148.845 312.77 148.939 313.37 148.939 314.082V314.58H143.053V313.565H147.746C147.746 313.134 147.66 312.75 147.488 312.412C147.319 312.074 147.077 311.807 146.762 311.612C146.45 311.416 146.082 311.318 145.658 311.318C145.191 311.318 144.786 311.434 144.445 311.666C144.107 311.895 143.847 312.193 143.664 312.561C143.482 312.929 143.391 313.323 143.391 313.744V314.42C143.391 314.997 143.49 315.486 143.689 315.887C143.891 316.285 144.172 316.588 144.529 316.797C144.887 317.002 145.303 317.105 145.777 317.105C146.086 317.105 146.364 317.062 146.613 316.976C146.864 316.886 147.082 316.754 147.264 316.578C147.446 316.399 147.587 316.177 147.686 315.912L148.82 316.23C148.701 316.615 148.5 316.953 148.218 317.244C147.937 317.533 147.589 317.758 147.174 317.92C146.76 318.08 146.294 318.159 145.777 318.159ZM150.724 318V310.364H153.846C154.668 310.364 155.321 310.549 155.805 310.92C156.289 311.292 156.531 311.782 156.531 312.392C156.531 312.856 156.393 313.216 156.118 313.471C155.843 313.723 155.49 313.893 155.059 313.983C155.341 314.023 155.614 314.122 155.88 314.281C156.148 314.44 156.37 314.659 156.546 314.938C156.721 315.213 156.809 315.551 156.809 315.952C156.809 316.343 156.71 316.692 156.511 317.001C156.312 317.309 156.027 317.553 155.656 317.732C155.285 317.911 154.841 318 154.324 318H150.724ZM151.838 316.926H154.324C154.728 316.926 155.044 316.83 155.273 316.638C155.502 316.446 155.616 316.184 155.616 315.852C155.616 315.458 155.502 315.148 155.273 314.923C155.044 314.694 154.728 314.58 154.324 314.58H151.838V316.926ZM151.838 313.565H153.846C154.161 313.565 154.431 313.522 154.657 313.436C154.882 313.347 155.054 313.221 155.174 313.058C155.296 312.893 155.358 312.697 155.358 312.472C155.358 312.15 155.223 311.898 154.955 311.716C154.686 311.53 154.317 311.438 153.846 311.438H151.838V313.565ZM158.585 320.864V310.364H159.719V311.577H159.858C159.944 311.444 160.064 311.275 160.216 311.07C160.372 310.861 160.594 310.675 160.882 310.513C161.174 310.347 161.568 310.264 162.066 310.264C162.709 310.264 163.275 310.425 163.766 310.746C164.256 311.068 164.639 311.524 164.914 312.114C165.189 312.704 165.327 313.4 165.327 314.202C165.327 315.01 165.189 315.711 164.914 316.305C164.639 316.895 164.258 317.352 163.771 317.677C163.284 317.998 162.722 318.159 162.085 318.159C161.595 318.159 161.202 318.078 160.907 317.915C160.612 317.75 160.385 317.562 160.226 317.354C160.067 317.142 159.944 316.966 159.858 316.827H159.759V320.864H158.585ZM159.739 314.182C159.739 314.759 159.823 315.267 159.992 315.708C160.161 316.146 160.408 316.489 160.733 316.737C161.058 316.982 161.456 317.105 161.926 317.105C162.417 317.105 162.826 316.976 163.154 316.717C163.486 316.455 163.734 316.104 163.9 315.663C164.069 315.219 164.154 314.725 164.154 314.182C164.154 313.645 164.071 313.161 163.905 312.73C163.743 312.296 163.496 311.953 163.164 311.701C162.836 311.446 162.423 311.318 161.926 311.318C161.449 311.318 161.048 311.439 160.723 311.681C160.398 311.92 160.153 312.254 159.987 312.685C159.822 313.113 159.739 313.612 159.739 314.182ZM169.364 318.179C168.88 318.179 168.441 318.088 168.046 317.906C167.652 317.72 167.339 317.453 167.107 317.105C166.875 316.754 166.759 316.33 166.759 315.832C166.759 315.395 166.845 315.04 167.017 314.768C167.19 314.493 167.42 314.278 167.708 314.122C167.997 313.966 168.315 313.85 168.663 313.774C169.014 313.695 169.367 313.632 169.722 313.585C170.186 313.526 170.562 313.481 170.85 313.451C171.142 313.418 171.354 313.363 171.487 313.287C171.623 313.211 171.691 313.078 171.691 312.889V312.849C171.691 312.359 171.556 311.978 171.288 311.706C171.023 311.434 170.62 311.298 170.08 311.298C169.52 311.298 169.08 311.421 168.762 311.666C168.444 311.911 168.22 312.173 168.091 312.452L166.977 312.054C167.176 311.59 167.441 311.229 167.773 310.97C168.108 310.708 168.472 310.526 168.867 310.423C169.264 310.317 169.655 310.264 170.04 310.264C170.285 310.264 170.567 310.294 170.885 310.354C171.207 310.41 171.517 310.528 171.815 310.707C172.116 310.886 172.367 311.156 172.566 311.517C172.764 311.878 172.864 312.362 172.864 312.969V318H171.691V316.966H171.631C171.551 317.132 171.419 317.309 171.233 317.498C171.048 317.687 170.801 317.848 170.492 317.98C170.184 318.113 169.808 318.179 169.364 318.179ZM169.543 317.125C170.007 317.125 170.398 317.034 170.716 316.852C171.038 316.669 171.28 316.434 171.442 316.146C171.608 315.857 171.691 315.554 171.691 315.236V314.162C171.641 314.222 171.531 314.276 171.362 314.326C171.197 314.372 171.004 314.414 170.786 314.45C170.57 314.483 170.36 314.513 170.154 314.54C169.952 314.563 169.788 314.583 169.662 314.599C169.357 314.639 169.072 314.704 168.807 314.793C168.545 314.879 168.333 315.01 168.171 315.186C168.012 315.358 167.932 315.594 167.932 315.892C167.932 316.3 168.083 316.608 168.384 316.817C168.689 317.022 169.075 317.125 169.543 317.125ZM174.329 318V316.906H174.608C174.836 316.906 175.027 316.862 175.179 316.772C175.332 316.679 175.454 316.518 175.547 316.29C175.643 316.058 175.716 315.736 175.766 315.325C175.819 314.911 175.857 314.384 175.88 313.744L176.02 310.364H181.11V318H179.937V311.457H177.133L177.014 314.182C176.987 314.808 176.931 315.36 176.845 315.837C176.762 316.311 176.634 316.709 176.462 317.031C176.293 317.352 176.068 317.594 175.786 317.756C175.504 317.919 175.151 318 174.727 318H174.329ZM184.277 313.128H186.465C187.36 313.128 188.044 313.355 188.518 313.809C188.992 314.263 189.229 314.838 189.229 315.534C189.229 315.991 189.123 316.407 188.911 316.782C188.699 317.153 188.387 317.45 187.976 317.672C187.565 317.891 187.061 318 186.465 318H183.263V310.364H184.436V316.906H186.465C186.929 316.906 187.31 316.784 187.608 316.538C187.907 316.293 188.056 315.978 188.056 315.594C188.056 315.189 187.907 314.86 187.608 314.604C187.31 314.349 186.929 314.222 186.465 314.222H184.277V313.128Z" fill="#A3A3A3"/>
<path d="M214.521 307.818H215.992L219.453 316.27H219.572L223.032 307.818H224.504V318H223.35V310.264H223.251L220.069 318H218.956L215.774 310.264H215.674V318H214.521V307.818ZM229.064 318.179C228.58 318.179 228.141 318.088 227.747 317.906C227.352 317.72 227.039 317.453 226.807 317.105C226.575 316.754 226.459 316.33 226.459 315.832C226.459 315.395 226.545 315.04 226.717 314.768C226.89 314.493 227.12 314.278 227.408 314.122C227.697 313.966 228.015 313.85 228.363 313.774C228.714 313.695 229.067 313.632 229.422 313.585C229.886 313.526 230.262 313.481 230.551 313.451C230.842 313.418 231.054 313.363 231.187 313.287C231.323 313.211 231.391 313.078 231.391 312.889V312.849C231.391 312.359 231.256 311.978 230.988 311.706C230.723 311.434 230.32 311.298 229.78 311.298C229.22 311.298 228.781 311.421 228.462 311.666C228.144 311.911 227.921 312.173 227.791 312.452L226.678 312.054C226.877 311.59 227.142 311.229 227.473 310.97C227.808 310.708 228.172 310.526 228.567 310.423C228.965 310.317 229.356 310.264 229.74 310.264C229.985 310.264 230.267 310.294 230.585 310.354C230.907 310.41 231.217 310.528 231.515 310.707C231.817 310.886 232.067 311.156 232.266 311.517C232.465 311.878 232.564 312.362 232.564 312.969V318H231.391V316.966H231.331C231.252 317.132 231.119 317.309 230.933 317.498C230.748 317.687 230.501 317.848 230.193 317.98C229.884 318.113 229.508 318.179 229.064 318.179ZM229.243 317.125C229.707 317.125 230.098 317.034 230.416 316.852C230.738 316.669 230.98 316.434 231.142 316.146C231.308 315.857 231.391 315.554 231.391 315.236V314.162C231.341 314.222 231.232 314.276 231.063 314.326C230.897 314.372 230.705 314.414 230.486 314.45C230.27 314.483 230.06 314.513 229.854 314.54C229.652 314.563 229.488 314.583 229.362 314.599C229.057 314.639 228.772 314.704 228.507 314.793C228.245 314.879 228.033 315.01 227.871 315.186C227.712 315.358 227.632 315.594 227.632 315.892C227.632 316.3 227.783 316.608 228.085 316.817C228.39 317.022 228.776 317.125 229.243 317.125ZM234.706 320.864V310.364H235.839V311.577H235.978C236.064 311.444 236.184 311.275 236.336 311.07C236.492 310.861 236.714 310.675 237.002 310.513C237.294 310.347 237.688 310.264 238.186 310.264C238.829 310.264 239.395 310.425 239.886 310.746C240.376 311.068 240.759 311.524 241.034 312.114C241.309 312.704 241.447 313.4 241.447 314.202C241.447 315.01 241.309 315.711 241.034 316.305C240.759 316.895 240.378 317.352 239.891 317.677C239.404 317.998 238.842 318.159 238.206 318.159C237.715 318.159 237.322 318.078 237.027 317.915C236.732 317.75 236.505 317.562 236.346 317.354C236.187 317.142 236.064 316.966 235.978 316.827H235.879V320.864H234.706ZM235.859 314.182C235.859 314.759 235.943 315.267 236.112 315.708C236.282 316.146 236.528 316.489 236.853 316.737C237.178 316.982 237.576 317.105 238.046 317.105C238.537 317.105 238.946 316.976 239.274 316.717C239.606 316.455 239.854 316.104 240.02 315.663C240.189 315.219 240.274 314.725 240.274 314.182C240.274 313.645 240.191 313.161 240.025 312.73C239.863 312.296 239.616 311.953 239.284 311.701C238.956 311.446 238.544 311.318 238.046 311.318C237.569 311.318 237.168 311.439 236.843 311.681C236.518 311.92 236.273 312.254 236.108 312.685C235.942 313.113 235.859 313.612 235.859 314.182ZM242.239 311.457V310.364H248.443V311.457H245.938V318H244.764V311.457H242.239Z" fill="#A3A3A3"/>
<path d="M274.186 318H272.893L276.632 307.818H277.904L281.643 318H280.35L277.308 309.429H277.228L274.186 318ZM274.663 314.023H279.873V315.116H274.663V314.023ZM283.07 318V310.364H289.075V318H287.902V311.457H284.243V318H283.07ZM291.218 320.864V310.364H292.352V311.577H292.491C292.577 311.444 292.696 311.275 292.849 311.07C293.005 310.861 293.227 310.675 293.515 310.513C293.807 310.347 294.201 310.264 294.698 310.264C295.341 310.264 295.908 310.425 296.399 310.746C296.889 311.068 297.272 311.524 297.547 312.114C297.822 312.704 297.96 313.4 297.96 314.202C297.96 315.01 297.822 315.711 297.547 316.305C297.272 316.895 296.891 317.352 296.404 317.677C295.916 317.998 295.355 318.159 294.718 318.159C294.228 318.159 293.835 318.078 293.54 317.915C293.245 317.75 293.018 317.562 292.859 317.354C292.7 317.142 292.577 316.966 292.491 316.827H292.392V320.864H291.218ZM292.372 314.182C292.372 314.759 292.456 315.267 292.625 315.708C292.794 316.146 293.041 316.489 293.366 316.737C293.691 316.982 294.088 317.105 294.559 317.105C295.05 317.105 295.459 316.976 295.787 316.717C296.119 316.455 296.367 316.104 296.533 315.663C296.702 315.219 296.786 314.725 296.786 314.182C296.786 313.645 296.704 313.161 296.538 312.73C296.375 312.296 296.128 311.953 295.797 311.701C295.469 311.446 295.056 311.318 294.559 311.318C294.082 311.318 293.681 311.439 293.356 311.681C293.031 311.92 292.786 312.254 292.62 312.685C292.454 313.113 292.372 313.612 292.372 314.182ZM302.951 318.159C302.215 318.159 301.581 317.997 301.047 317.672C300.517 317.344 300.107 316.886 299.819 316.3C299.534 315.71 299.392 315.024 299.392 314.241C299.392 313.459 299.534 312.77 299.819 312.173C300.107 311.573 300.508 311.106 301.022 310.771C301.539 310.433 302.142 310.264 302.832 310.264C303.23 310.264 303.622 310.33 304.01 310.463C304.398 310.596 304.751 310.811 305.069 311.109C305.387 311.404 305.641 311.795 305.83 312.283C306.019 312.77 306.113 313.37 306.113 314.082V314.58H300.227V313.565H304.92C304.92 313.134 304.834 312.75 304.661 312.412C304.492 312.074 304.25 311.807 303.936 311.612C303.624 311.416 303.256 311.318 302.832 311.318C302.365 311.318 301.96 311.434 301.619 311.666C301.281 311.895 301.021 312.193 300.838 312.561C300.656 312.929 300.565 313.323 300.565 313.744V314.42C300.565 314.997 300.664 315.486 300.863 315.887C301.065 316.285 301.345 316.588 301.703 316.797C302.061 317.002 302.477 317.105 302.951 317.105C303.259 317.105 303.538 317.062 303.786 316.976C304.038 316.886 304.255 316.754 304.438 316.578C304.62 316.399 304.761 316.177 304.86 315.912L305.994 316.23C305.874 316.615 305.674 316.953 305.392 317.244C305.11 317.533 304.762 317.758 304.348 317.92C303.934 318.08 303.468 318.159 302.951 318.159ZM307.222 318V316.906H307.5C307.729 316.906 307.919 316.862 308.072 316.772C308.224 316.679 308.347 316.518 308.44 316.29C308.536 316.058 308.609 315.736 308.659 315.325C308.712 314.911 308.75 314.384 308.773 313.744L308.912 310.364H314.003V318H312.83V311.457H310.026L309.906 314.182C309.88 314.808 309.824 315.36 309.737 315.837C309.655 316.311 309.527 316.709 309.355 317.031C309.186 317.352 308.96 317.594 308.678 317.756C308.397 317.919 308.044 318 307.619 318H307.222ZM317.17 313.128H319.357C320.252 313.128 320.937 313.355 321.411 313.809C321.885 314.263 322.122 314.838 322.122 315.534C322.122 315.991 322.016 316.407 321.803 316.782C321.591 317.153 321.28 317.45 320.869 317.672C320.458 317.891 319.954 318 319.357 318H316.156V310.364H317.329V316.906H319.357C319.821 316.906 320.203 316.784 320.501 316.538C320.799 316.293 320.948 315.978 320.948 315.594C320.948 315.189 320.799 314.86 320.501 314.604C320.203 314.349 319.821 314.222 319.357 314.222H317.17V313.128Z" fill="#A3A3A3"/>
<path d="M347.569 307.818H349.04L352.501 316.27H352.62L356.08 307.818H357.552V318H356.398V310.264H356.299L353.117 318H352.003L348.822 310.264H348.722V318H347.569V307.818ZM362.112 318.179C361.628 318.179 361.189 318.088 360.794 317.906C360.4 317.72 360.087 317.453 359.855 317.105C359.623 316.754 359.507 316.33 359.507 315.832C359.507 315.395 359.593 315.04 359.765 314.768C359.938 314.493 360.168 314.278 360.456 314.122C360.745 313.966 361.063 313.85 361.411 313.774C361.762 313.695 362.115 313.632 362.47 313.585C362.934 313.526 363.31 313.481 363.598 313.451C363.89 313.418 364.102 313.363 364.235 313.287C364.371 313.211 364.439 313.078 364.439 312.889V312.849C364.439 312.359 364.304 311.978 364.036 311.706C363.771 311.434 363.368 311.298 362.828 311.298C362.268 311.298 361.828 311.421 361.51 311.666C361.192 311.911 360.968 312.173 360.839 312.452L359.725 312.054C359.924 311.59 360.19 311.229 360.521 310.97C360.856 310.708 361.22 310.526 361.615 310.423C362.012 310.317 362.404 310.264 362.788 310.264C363.033 310.264 363.315 310.294 363.633 310.354C363.955 310.41 364.265 310.528 364.563 310.707C364.864 310.886 365.115 311.156 365.314 311.517C365.512 311.878 365.612 312.362 365.612 312.969V318H364.439V316.966H364.379C364.299 317.132 364.167 317.309 363.981 317.498C363.796 317.687 363.549 317.848 363.24 317.98C362.932 318.113 362.556 318.179 362.112 318.179ZM362.291 317.125C362.755 317.125 363.146 317.034 363.464 316.852C363.786 316.669 364.028 316.434 364.19 316.146C364.356 315.857 364.439 315.554 364.439 315.236V314.162C364.389 314.222 364.279 314.276 364.11 314.326C363.945 314.372 363.752 314.414 363.534 314.45C363.318 314.483 363.108 314.513 362.902 314.54C362.7 314.563 362.536 314.583 362.41 314.599C362.105 314.639 361.82 314.704 361.555 314.793C361.293 314.879 361.081 315.01 360.919 315.186C360.76 315.358 360.68 315.594 360.68 315.892C360.68 316.3 360.831 316.608 361.132 316.817C361.437 317.022 361.824 317.125 362.291 317.125ZM368.927 316.27L372.606 310.364H373.958V318H372.785V312.094L369.126 318H367.753V310.364H368.927V316.27ZM371.83 307.818H372.924C372.924 308.355 372.738 308.794 372.367 309.136C371.996 309.477 371.492 309.648 370.856 309.648C370.229 309.648 369.73 309.477 369.359 309.136C368.991 308.794 368.807 308.355 368.807 307.818H369.901C369.901 308.077 369.972 308.304 370.115 308.499C370.261 308.695 370.508 308.793 370.856 308.793C371.204 308.793 371.452 308.695 371.601 308.499C371.754 308.304 371.83 308.077 371.83 307.818Z" fill="#A3A3A3"/>
<path d="M399.509 307.818H400.722V315.832H400.822L406.39 307.818H407.583V318H406.35V310.006H406.251L400.702 318H399.509V307.818ZM413.55 313.705V314.798H409.513V313.705H413.55ZM410.508 310.364V318H409.334V310.364H410.508ZM415.897 318.159C415.207 318.159 414.602 317.995 414.082 317.667C413.565 317.339 413.161 316.88 412.869 316.29C412.581 315.7 412.437 315.01 412.437 314.222C412.437 313.426 412.581 312.732 412.869 312.138C413.161 311.545 413.565 311.085 414.082 310.756C414.602 310.428 415.207 310.264 415.897 310.264C416.586 310.264 417.189 310.428 417.706 310.756C418.227 311.085 418.631 311.545 418.919 312.138C419.211 312.732 419.357 313.426 419.357 314.222C419.357 315.01 419.211 315.7 418.919 316.29C418.631 316.88 418.227 317.339 417.706 317.667C417.189 317.995 416.586 318.159 415.897 318.159ZM415.897 317.105C416.42 317.105 416.851 316.971 417.189 316.702C417.527 316.434 417.778 316.081 417.94 315.643C418.102 315.206 418.184 314.732 418.184 314.222C418.184 313.711 418.102 313.236 417.94 312.795C417.778 312.354 417.527 311.998 417.189 311.726C416.851 311.454 416.42 311.318 415.897 311.318C415.373 311.318 414.942 311.454 414.604 311.726C414.266 311.998 414.016 312.354 413.853 312.795C413.691 313.236 413.61 313.711 413.61 314.222C413.61 314.732 413.691 315.206 413.853 315.643C414.016 316.081 414.266 316.434 414.604 316.702C414.942 316.971 415.373 317.105 415.897 317.105ZM426.377 313.645V314.739H422.161V313.645H426.377ZM422.439 310.364V318H421.266V310.364H422.439ZM427.272 310.364V318H426.098V310.364H427.272ZM430.429 313.128H432.616C433.511 313.128 434.196 313.355 434.669 313.809C435.143 314.263 435.38 314.838 435.38 315.534C435.38 315.991 435.274 316.407 435.062 316.782C434.85 317.153 434.539 317.45 434.128 317.672C433.717 317.891 433.213 318 432.616 318H429.415V310.364H430.588V316.906H432.616C433.08 316.906 433.461 316.784 433.76 316.538C434.058 316.293 434.207 315.978 434.207 315.594C434.207 315.189 434.058 314.86 433.76 314.604C433.461 314.349 433.08 314.222 432.616 314.222H430.429V313.128Z" fill="#A3A3A3"/>
<path d="M460.454 307.818H461.668V315.832H461.767L467.335 307.818H468.528V318H467.295V310.006H467.196L461.648 318H460.454V307.818ZM474.495 313.705V314.798H470.459V313.705H474.495ZM471.453 310.364V318H470.28V310.364H471.453ZM476.842 318.159C476.153 318.159 475.548 317.995 475.027 317.667C474.51 317.339 474.106 316.88 473.814 316.29C473.526 315.7 473.382 315.01 473.382 314.222C473.382 313.426 473.526 312.732 473.814 312.138C474.106 311.545 474.51 311.085 475.027 310.756C475.548 310.428 476.153 310.264 476.842 310.264C477.531 310.264 478.135 310.428 478.652 310.756C479.172 311.085 479.576 311.545 479.865 312.138C480.156 312.732 480.302 313.426 480.302 314.222C480.302 315.01 480.156 315.7 479.865 316.29C479.576 316.88 479.172 317.339 478.652 317.667C478.135 317.995 477.531 318.159 476.842 318.159ZM476.842 317.105C477.366 317.105 477.797 316.971 478.135 316.702C478.473 316.434 478.723 316.081 478.885 315.643C479.048 315.206 479.129 314.732 479.129 314.222C479.129 313.711 479.048 313.236 478.885 312.795C478.723 312.354 478.473 311.998 478.135 311.726C477.797 311.454 477.366 311.318 476.842 311.318C476.318 311.318 475.888 311.454 475.549 311.726C475.211 311.998 474.961 312.354 474.799 312.795C474.636 313.236 474.555 313.711 474.555 314.222C474.555 314.732 474.636 315.206 474.799 315.643C474.961 316.081 475.211 316.434 475.549 316.702C475.888 316.971 476.318 317.105 476.842 317.105ZM481.535 318V316.906H481.814C482.042 316.906 482.233 316.862 482.385 316.772C482.538 316.679 482.66 316.518 482.753 316.29C482.849 316.058 482.922 315.736 482.972 315.325C483.025 314.911 483.063 314.384 483.086 313.744L483.226 310.364H488.316V318H487.143V311.457H484.339L484.22 314.182C484.193 314.808 484.137 315.36 484.051 315.837C483.968 316.311 483.84 316.709 483.668 317.031C483.499 317.352 483.274 317.594 482.992 317.756C482.71 317.919 482.357 318 481.933 318H481.535ZM491.483 313.128H493.671C494.566 313.128 495.25 313.355 495.724 313.809C496.198 314.263 496.435 314.838 496.435 315.534C496.435 315.991 496.329 316.407 496.117 316.782C495.905 317.153 495.593 317.45 495.182 317.672C494.771 317.891 494.267 318 493.671 318H490.469V310.364H491.642V316.906H493.671C494.135 316.906 494.516 316.784 494.814 316.538C495.113 316.293 495.262 315.978 495.262 315.594C495.262 315.189 495.113 314.86 494.814 314.604C494.516 314.349 494.135 314.222 493.671 314.222H491.483V313.128Z" fill="#A3A3A3"/>
<path d="M522.134 318H520.841L524.58 307.818H525.853L529.591 318H528.299L525.256 309.429H525.176L522.134 318ZM522.611 314.023H527.821V315.116H522.611V314.023ZM531.018 318V310.364H534.14C534.962 310.364 535.615 310.549 536.099 310.92C536.583 311.292 536.825 311.782 536.825 312.392C536.825 312.856 536.687 313.216 536.412 313.471C536.137 313.723 535.784 313.893 535.353 313.983C535.635 314.023 535.908 314.122 536.174 314.281C536.442 314.44 536.664 314.659 536.84 314.938C537.015 315.213 537.103 315.551 537.103 315.952C537.103 316.343 537.004 316.692 536.805 317.001C536.606 317.309 536.321 317.553 535.95 317.732C535.579 317.911 535.134 318 534.617 318H531.018ZM532.132 316.926H534.617C535.022 316.926 535.338 316.83 535.567 316.638C535.796 316.446 535.91 316.184 535.91 315.852C535.91 315.458 535.796 315.148 535.567 314.923C535.338 314.694 535.022 314.58 534.617 314.58H532.132V316.926ZM532.132 313.565H534.14C534.455 313.565 534.725 313.522 534.951 313.436C535.176 313.347 535.348 313.221 535.468 313.058C535.59 312.893 535.652 312.697 535.652 312.472C535.652 312.15 535.517 311.898 535.249 311.716C534.98 311.53 534.611 311.438 534.14 311.438H532.132V313.565ZM543.592 310.364V311.457H540.053V318H538.879V310.364H543.592ZM546.061 320.864C545.862 320.864 545.685 320.847 545.529 320.814C545.373 320.784 545.265 320.754 545.206 320.724L545.504 319.69C545.789 319.763 546.041 319.79 546.26 319.77C546.478 319.75 546.672 319.652 546.841 319.477C547.014 319.304 547.171 319.024 547.314 318.636L547.532 318.04L544.709 310.364H545.981L548.089 316.449H548.169L550.277 310.364H551.549L548.308 319.114C548.162 319.508 547.981 319.835 547.766 320.093C547.551 320.355 547.3 320.549 547.015 320.675C546.734 320.801 546.415 320.864 546.061 320.864ZM555.927 318.159C555.211 318.159 554.595 317.99 554.077 317.652C553.56 317.314 553.163 316.848 552.884 316.255C552.606 315.662 552.467 314.984 552.467 314.222C552.467 313.446 552.609 312.762 552.894 312.168C553.183 311.572 553.584 311.106 554.097 310.771C554.614 310.433 555.218 310.264 555.907 310.264C556.444 310.264 556.928 310.364 557.359 310.562C557.79 310.761 558.143 311.04 558.418 311.398C558.693 311.756 558.863 312.173 558.93 312.651H557.756C557.667 312.303 557.468 311.994 557.16 311.726C556.855 311.454 556.444 311.318 555.927 311.318C555.47 311.318 555.069 311.437 554.724 311.676C554.382 311.911 554.116 312.245 553.923 312.675C553.734 313.103 553.64 313.605 553.64 314.182C553.64 314.772 553.733 315.286 553.918 315.723C554.107 316.161 554.372 316.5 554.714 316.742C555.059 316.984 555.463 317.105 555.927 317.105C556.232 317.105 556.509 317.052 556.757 316.946C557.006 316.84 557.216 316.688 557.389 316.489C557.561 316.29 557.684 316.051 557.756 315.773H558.93C558.863 316.223 558.699 316.629 558.438 316.991C558.179 317.349 557.836 317.634 557.408 317.846C556.984 318.055 556.49 318.159 555.927 318.159ZM560.043 311.457V310.364H566.248V311.457H563.742V318H562.569V311.457H560.043Z" fill="#A3A3A3"/>
<path d="M599.73 311H598.497C598.424 310.645 598.296 310.334 598.114 310.065C597.935 309.797 597.716 309.571 597.458 309.389C597.202 309.204 596.919 309.064 596.608 308.972C596.296 308.879 595.971 308.832 595.633 308.832C595.017 308.832 594.458 308.988 593.958 309.3C593.46 309.611 593.064 310.07 592.769 310.677C592.478 311.283 592.332 312.027 592.332 312.909C592.332 313.791 592.478 314.535 592.769 315.141C593.064 315.748 593.46 316.207 593.958 316.518C594.458 316.83 595.017 316.986 595.633 316.986C595.971 316.986 596.296 316.939 596.608 316.847C596.919 316.754 597.202 316.616 597.458 316.434C597.716 316.248 597.935 316.021 598.114 315.753C598.296 315.481 598.424 315.17 598.497 314.818H599.73C599.637 315.339 599.468 315.804 599.223 316.215C598.977 316.626 598.672 316.976 598.308 317.264C597.943 317.549 597.534 317.766 597.08 317.915C596.629 318.065 596.147 318.139 595.633 318.139C594.765 318.139 593.992 317.927 593.316 317.503C592.64 317.079 592.108 316.475 591.72 315.693C591.333 314.911 591.139 313.983 591.139 312.909C591.139 311.835 591.333 310.907 591.72 310.125C592.108 309.343 592.64 308.74 593.316 308.315C593.992 307.891 594.765 307.679 595.633 307.679C596.147 307.679 596.629 307.754 597.08 307.903C597.534 308.052 597.943 308.271 598.308 308.559C598.672 308.844 598.977 309.192 599.223 309.603C599.468 310.011 599.637 310.476 599.73 311ZM604.765 318.159C604.029 318.159 603.394 317.997 602.861 317.672C602.33 317.344 601.921 316.886 601.633 316.3C601.348 315.71 601.205 315.024 601.205 314.241C601.205 313.459 601.348 312.77 601.633 312.173C601.921 311.573 602.322 311.106 602.836 310.771C603.353 310.433 603.956 310.264 604.645 310.264C605.043 310.264 605.436 310.33 605.824 310.463C606.211 310.596 606.564 310.811 606.883 311.109C607.201 311.404 607.454 311.795 607.643 312.283C607.832 312.77 607.927 313.37 607.927 314.082V314.58H602.04V313.565H606.733C606.733 313.134 606.647 312.75 606.475 312.412C606.306 312.074 606.064 311.807 605.749 311.612C605.437 311.416 605.07 311.318 604.645 311.318C604.178 311.318 603.774 311.434 603.432 311.666C603.094 311.895 602.834 312.193 602.652 312.561C602.469 312.929 602.378 313.323 602.378 313.744V314.42C602.378 314.997 602.478 315.486 602.677 315.887C602.879 316.285 603.159 316.588 603.517 316.797C603.875 317.002 604.291 317.105 604.765 317.105C605.073 317.105 605.351 317.062 605.6 316.976C605.852 316.886 606.069 316.754 606.251 316.578C606.433 316.399 606.574 316.177 606.674 315.912L607.807 316.23C607.688 316.615 607.487 316.953 607.206 317.244C606.924 317.533 606.576 317.758 606.162 317.92C605.747 318.08 605.282 318.159 604.765 318.159ZM614.822 313.645V314.739H610.606V313.645H614.822ZM610.885 310.364V318H609.711V310.364H610.885ZM615.717 310.364V318H614.544V310.364H615.717ZM616.821 311.457V310.364H623.025V311.457H620.52V318H619.346V311.457H616.821ZM629.331 318V311.438H627.302C626.845 311.438 626.485 311.544 626.223 311.756C625.961 311.968 625.831 312.259 625.831 312.631C625.831 312.995 625.948 313.282 626.183 313.491C626.422 313.7 626.749 313.804 627.163 313.804H629.629V314.898H627.163C626.646 314.898 626.2 314.807 625.826 314.624C625.451 314.442 625.163 314.182 624.96 313.844C624.758 313.502 624.657 313.098 624.657 312.631C624.657 312.16 624.763 311.756 624.975 311.418C625.188 311.08 625.491 310.819 625.885 310.637C626.283 310.455 626.755 310.364 627.302 310.364H630.444V318H629.331ZM624.24 318L626.407 314.202H627.68L625.512 318H624.24ZM638.266 307.5L638.862 308.216C638.63 308.441 638.362 308.599 638.057 308.688C637.752 308.778 637.407 308.832 637.023 308.852C636.638 308.872 636.211 308.892 635.74 308.912C635.21 308.932 634.771 309.061 634.423 309.3C634.075 309.538 633.806 309.883 633.617 310.334C633.428 310.785 633.307 311.338 633.254 311.994H633.354C633.612 311.517 633.97 311.166 634.428 310.94C634.885 310.715 635.376 310.602 635.899 310.602C636.496 310.602 637.033 310.741 637.51 311.02C637.987 311.298 638.365 311.711 638.644 312.258C638.922 312.805 639.061 313.479 639.061 314.281C639.061 315.08 638.919 315.769 638.634 316.349C638.352 316.929 637.956 317.377 637.445 317.692C636.938 318.003 636.343 318.159 635.661 318.159C634.978 318.159 634.38 317.998 633.866 317.677C633.352 317.352 632.953 316.871 632.668 316.235C632.383 315.595 632.24 314.805 632.24 313.864V313.048C632.24 311.348 632.528 310.059 633.105 309.18C633.685 308.302 634.557 307.848 635.72 307.818C636.131 307.805 636.497 307.802 636.819 307.808C637.14 307.815 637.421 307.8 637.659 307.763C637.898 307.727 638.1 307.639 638.266 307.5ZM635.661 317.105C636.121 317.105 636.517 316.989 636.849 316.757C637.184 316.525 637.44 316.199 637.619 315.778C637.798 315.353 637.888 314.855 637.888 314.281C637.888 313.724 637.797 313.25 637.614 312.859C637.435 312.468 637.179 312.17 636.844 311.964C636.509 311.759 636.108 311.656 635.641 311.656C635.299 311.656 634.993 311.714 634.721 311.83C634.449 311.946 634.217 312.117 634.025 312.342C633.833 312.568 633.684 312.843 633.577 313.168C633.475 313.492 633.42 313.864 633.413 314.281C633.413 315.136 633.614 315.821 634.015 316.335C634.416 316.848 634.965 317.105 635.661 317.105ZM640.856 320.864V310.364H641.989V311.577H642.129C642.215 311.444 642.334 311.275 642.487 311.07C642.642 310.861 642.864 310.675 643.153 310.513C643.444 310.347 643.839 310.264 644.336 310.264C644.979 310.264 645.546 310.425 646.036 310.746C646.527 311.068 646.91 311.524 647.185 312.114C647.46 312.704 647.597 313.4 647.597 314.202C647.597 315.01 647.46 315.711 647.185 316.305C646.91 316.895 646.528 317.352 646.041 317.677C645.554 317.998 644.992 318.159 644.356 318.159C643.865 318.159 643.473 318.078 643.178 317.915C642.883 317.75 642.656 317.562 642.497 317.354C642.337 317.142 642.215 316.966 642.129 316.827H642.029V320.864H640.856ZM642.009 314.182C642.009 314.759 642.094 315.267 642.263 315.708C642.432 316.146 642.679 316.489 643.004 316.737C643.328 316.982 643.726 317.105 644.197 317.105C644.687 317.105 645.097 316.976 645.425 316.717C645.756 316.455 646.005 316.104 646.171 315.663C646.34 315.219 646.424 314.725 646.424 314.182C646.424 313.645 646.341 313.161 646.176 312.73C646.013 312.296 645.766 311.953 645.435 311.701C645.107 311.446 644.694 311.318 644.197 311.318C643.72 311.318 643.319 311.439 642.994 311.681C642.669 311.92 642.424 312.254 642.258 312.685C642.092 313.113 642.009 313.612 642.009 314.182ZM650.401 313.128H652.589C653.484 313.128 654.168 313.355 654.642 313.809C655.116 314.263 655.353 314.838 655.353 315.534C655.353 315.991 655.247 316.407 655.035 316.782C654.823 317.153 654.511 317.45 654.1 317.672C653.689 317.891 653.185 318 652.589 318H649.387V310.364H650.56V316.906H652.589C653.053 316.906 653.434 316.784 653.732 316.538C654.031 316.293 654.18 315.978 654.18 315.594C654.18 315.189 654.031 314.86 653.732 314.604C653.434 314.349 653.053 314.222 652.589 314.222H650.401V313.128Z" fill="#A3A3A3"/>
<path d="M689.476 312.909C689.476 313.983 689.282 314.911 688.894 315.693C688.507 316.475 687.975 317.079 687.298 317.503C686.622 317.927 685.85 318.139 684.982 318.139C684.113 318.139 683.341 317.927 682.665 317.503C681.989 317.079 681.457 316.475 681.069 315.693C680.681 314.911 680.487 313.983 680.487 312.909C680.487 311.835 680.681 310.907 681.069 310.125C681.457 309.343 681.989 308.74 682.665 308.315C683.341 307.891 684.113 307.679 684.982 307.679C685.85 307.679 686.622 307.891 687.298 308.315C687.975 308.74 688.507 309.343 688.894 310.125C689.282 310.907 689.476 311.835 689.476 312.909ZM688.283 312.909C688.283 312.027 688.135 311.283 687.84 310.677C687.549 310.07 687.153 309.611 686.652 309.3C686.155 308.988 685.598 308.832 684.982 308.832C684.365 308.832 683.807 308.988 683.306 309.3C682.809 309.611 682.413 310.07 682.118 310.677C681.826 311.283 681.681 312.027 681.681 312.909C681.681 313.791 681.826 314.535 682.118 315.141C682.413 315.748 682.809 316.207 683.306 316.518C683.807 316.83 684.365 316.986 684.982 316.986C685.598 316.986 686.155 316.83 686.652 316.518C687.153 316.207 687.549 315.748 687.84 315.141C688.135 314.535 688.283 313.791 688.283 312.909ZM691.39 318V310.364H692.563V313.685H693.339L696.083 310.364H697.595L694.512 314.043L697.634 318H696.123L693.617 314.778H692.563V318H691.39ZM698.472 311.457V310.364H704.677V311.457H702.171V318H700.998V311.457H698.472ZM710.982 318V311.438H708.953C708.496 311.438 708.136 311.544 707.875 311.756C707.613 311.968 707.482 312.259 707.482 312.631C707.482 312.995 707.6 313.282 707.835 313.491C708.074 313.7 708.4 313.804 708.814 313.804H711.28V314.898H708.814C708.297 314.898 707.851 314.807 707.477 314.624C707.102 314.442 706.814 314.182 706.612 313.844C706.41 313.502 706.309 313.098 706.309 312.631C706.309 312.16 706.415 311.756 706.627 311.418C706.839 311.08 707.142 310.819 707.537 310.637C707.934 310.455 708.407 310.364 708.953 310.364H712.096V318H710.982ZM705.891 318L708.059 314.202H709.331L707.164 318H705.891ZM719.917 307.5L720.514 308.216C720.282 308.441 720.013 308.599 719.708 308.688C719.403 308.778 719.059 308.832 718.674 308.852C718.29 308.872 717.862 308.892 717.392 308.912C716.861 308.932 716.422 309.061 716.074 309.3C715.726 309.538 715.458 309.883 715.269 310.334C715.08 310.785 714.959 311.338 714.906 311.994H715.005C715.264 311.517 715.622 311.166 716.079 310.94C716.536 310.715 717.027 310.602 717.551 310.602C718.147 310.602 718.684 310.741 719.161 311.02C719.639 311.298 720.017 311.711 720.295 312.258C720.573 312.805 720.713 313.479 720.713 314.281C720.713 315.08 720.57 315.769 720.285 316.349C720.003 316.929 719.607 317.377 719.097 317.692C718.59 318.003 717.995 318.159 717.312 318.159C716.629 318.159 716.031 317.998 715.517 317.677C715.003 317.352 714.604 316.871 714.319 316.235C714.034 315.595 713.892 314.805 713.892 313.864V313.048C713.892 311.348 714.18 310.059 714.757 309.18C715.337 308.302 716.208 307.848 717.372 307.818C717.783 307.805 718.149 307.802 718.47 307.808C718.792 307.815 719.072 307.8 719.311 307.763C719.549 307.727 719.751 307.639 719.917 307.5ZM717.312 317.105C717.773 317.105 718.169 316.989 718.5 316.757C718.835 316.525 719.092 316.199 719.271 315.778C719.45 315.353 719.539 314.855 719.539 314.281C719.539 313.724 719.448 313.25 719.266 312.859C719.087 312.468 718.83 312.17 718.495 311.964C718.16 311.759 717.759 311.656 717.292 311.656C716.951 311.656 716.644 311.714 716.372 311.83C716.101 311.946 715.869 312.117 715.676 312.342C715.484 312.568 715.335 312.843 715.229 313.168C715.126 313.492 715.071 313.864 715.065 314.281C715.065 315.136 715.265 315.821 715.666 316.335C716.067 316.848 716.616 317.105 717.312 317.105ZM722.507 320.864V310.364H723.641V311.577H723.78C723.866 311.444 723.985 311.275 724.138 311.07C724.294 310.861 724.516 310.675 724.804 310.513C725.096 310.347 725.49 310.264 725.987 310.264C726.63 310.264 727.197 310.425 727.688 310.746C728.178 311.068 728.561 311.524 728.836 312.114C729.111 312.704 729.249 313.4 729.249 314.202C729.249 315.01 729.111 315.711 728.836 316.305C728.561 316.895 728.18 317.352 727.693 317.677C727.205 317.998 726.644 318.159 726.007 318.159C725.517 318.159 725.124 318.078 724.829 317.915C724.534 317.75 724.307 317.562 724.148 317.354C723.989 317.142 723.866 316.966 723.78 316.827H723.681V320.864H722.507ZM723.661 314.182C723.661 314.759 723.745 315.267 723.914 315.708C724.083 316.146 724.33 316.489 724.655 316.737C724.98 316.982 725.378 317.105 725.848 317.105C726.339 317.105 726.748 316.976 727.076 316.717C727.408 316.455 727.656 316.104 727.822 315.663C727.991 315.219 728.075 314.725 728.075 314.182C728.075 313.645 727.993 313.161 727.827 312.73C727.664 312.296 727.418 311.953 727.086 311.701C726.758 311.446 726.345 311.318 725.848 311.318C725.371 311.318 724.97 311.439 724.645 311.681C724.32 311.92 724.075 312.254 723.909 312.685C723.744 313.113 723.661 313.612 723.661 314.182ZM732.053 313.128H734.24C735.135 313.128 735.82 313.355 736.293 313.809C736.767 314.263 737.004 314.838 737.004 315.534C737.004 315.991 736.898 316.407 736.686 316.782C736.474 317.153 736.163 317.45 735.752 317.672C735.341 317.891 734.837 318 734.24 318H731.039V310.364H732.212V316.906H734.24C734.704 316.906 735.085 316.784 735.384 316.538C735.682 316.293 735.831 315.978 735.831 315.594C735.831 315.189 735.682 314.86 735.384 314.604C735.085 314.349 734.704 314.222 734.24 314.222H732.053V313.128Z" fill="#A3A3A3"/>
<path d="M762.858 318V307.818H764.091V312.352H769.52V307.818H770.753V318H769.52V313.446H764.091V318H762.858ZM776.164 318.159C775.475 318.159 774.87 317.995 774.35 317.667C773.833 317.339 773.428 316.88 773.137 316.29C772.848 315.7 772.704 315.01 772.704 314.222C772.704 313.426 772.848 312.732 773.137 312.138C773.428 311.545 773.833 311.085 774.35 310.756C774.87 310.428 775.475 310.264 776.164 310.264C776.854 310.264 777.457 310.428 777.974 310.756C778.494 311.085 778.899 311.545 779.187 312.138C779.479 312.732 779.624 313.426 779.624 314.222C779.624 315.01 779.479 315.7 779.187 316.29C778.899 316.88 778.494 317.339 777.974 317.667C777.457 317.995 776.854 318.159 776.164 318.159ZM776.164 317.105C776.688 317.105 777.119 316.971 777.457 316.702C777.795 316.434 778.045 316.081 778.208 315.643C778.37 315.206 778.451 314.732 778.451 314.222C778.451 313.711 778.37 313.236 778.208 312.795C778.045 312.354 777.795 311.998 777.457 311.726C777.119 311.454 776.688 311.318 776.164 311.318C775.641 311.318 775.21 311.454 774.872 311.726C774.534 311.998 774.283 312.354 774.121 312.795C773.959 313.236 773.877 313.711 773.877 314.222C773.877 314.732 773.959 315.206 774.121 315.643C774.283 316.081 774.534 316.434 774.872 316.702C775.21 316.971 775.641 317.105 776.164 317.105ZM786.009 318V311.438H783.981C783.523 311.438 783.164 311.544 782.902 311.756C782.64 311.968 782.509 312.259 782.509 312.631C782.509 312.995 782.627 313.282 782.862 313.491C783.101 313.7 783.427 313.804 783.842 313.804H786.308V314.898H783.842C783.325 314.898 782.879 314.807 782.504 314.624C782.13 314.442 781.841 314.182 781.639 313.844C781.437 313.502 781.336 313.098 781.336 312.631C781.336 312.16 781.442 311.756 781.654 311.418C781.866 311.08 782.17 310.819 782.564 310.637C782.962 310.455 783.434 310.364 783.981 310.364H787.123V318H786.009ZM780.918 318L783.086 314.202H784.359L782.191 318H780.918ZM794.944 307.5L795.541 308.216C795.309 308.441 795.041 308.599 794.736 308.688C794.431 308.778 794.086 308.832 793.702 308.852C793.317 308.872 792.889 308.892 792.419 308.912C791.889 308.932 791.449 309.061 791.101 309.3C790.753 309.538 790.485 309.883 790.296 310.334C790.107 310.785 789.986 311.338 789.933 311.994H790.032C790.291 311.517 790.649 311.166 791.106 310.94C791.564 310.715 792.054 310.602 792.578 310.602C793.175 310.602 793.711 310.741 794.189 311.02C794.666 311.298 795.044 311.711 795.322 312.258C795.601 312.805 795.74 313.479 795.74 314.281C795.74 315.08 795.597 315.769 795.312 316.349C795.031 316.929 794.635 317.377 794.124 317.692C793.617 318.003 793.022 318.159 792.339 318.159C791.657 318.159 791.058 317.998 790.545 317.677C790.031 317.352 789.631 316.871 789.346 316.235C789.061 315.595 788.919 314.805 788.919 313.864V313.048C788.919 311.348 789.207 310.059 789.784 309.18C790.364 308.302 791.236 307.848 792.399 307.818C792.81 307.805 793.176 307.802 793.498 307.808C793.819 307.815 794.099 307.8 794.338 307.763C794.577 307.727 794.779 307.639 794.944 307.5ZM792.339 317.105C792.8 317.105 793.196 316.989 793.528 316.757C793.862 316.525 794.119 316.199 794.298 315.778C794.477 315.353 794.567 314.855 794.567 314.281C794.567 313.724 794.475 313.25 794.293 312.859C794.114 312.468 793.857 312.17 793.523 311.964C793.188 311.759 792.787 311.656 792.319 311.656C791.978 311.656 791.671 311.714 791.4 311.83C791.128 311.946 790.896 312.117 790.704 312.342C790.511 312.568 790.362 312.843 790.256 313.168C790.153 313.492 790.099 313.864 790.092 314.281C790.092 315.136 790.293 315.821 790.694 316.335C791.095 316.848 791.643 317.105 792.339 317.105ZM797.535 320.864V310.364H798.668V311.577H798.807C798.894 311.444 799.013 311.275 799.165 311.07C799.321 310.861 799.543 310.675 799.831 310.513C800.123 310.347 800.518 310.264 801.015 310.264C801.658 310.264 802.224 310.425 802.715 310.746C803.206 311.068 803.588 311.524 803.863 312.114C804.139 312.704 804.276 313.4 804.276 314.202C804.276 315.01 804.139 315.711 803.863 316.305C803.588 316.895 803.207 317.352 802.72 317.677C802.233 317.998 801.671 318.159 801.035 318.159C800.544 318.159 800.151 318.078 799.856 317.915C799.561 317.75 799.334 317.562 799.175 317.354C799.016 317.142 798.894 316.966 798.807 316.827H798.708V320.864H797.535ZM798.688 314.182C798.688 314.759 798.773 315.267 798.942 315.708C799.111 316.146 799.358 316.489 799.682 316.737C800.007 316.982 800.405 317.105 800.876 317.105C801.366 317.105 801.775 316.976 802.104 316.717C802.435 316.455 802.684 316.104 802.849 315.663C803.018 315.219 803.103 314.725 803.103 314.182C803.103 313.645 803.02 313.161 802.854 312.73C802.692 312.296 802.445 311.953 802.113 311.701C801.785 311.446 801.373 311.318 800.876 311.318C800.398 311.318 799.997 311.439 799.672 311.681C799.348 311.92 799.102 312.254 798.937 312.685C798.771 313.113 798.688 313.612 798.688 314.182ZM807.08 313.128H809.268C810.162 313.128 810.847 313.355 811.321 313.809C811.795 314.263 812.032 314.838 812.032 315.534C812.032 315.991 811.926 316.407 811.714 316.782C811.501 317.153 811.19 317.45 810.779 317.672C810.368 317.891 809.864 318 809.268 318H806.066V310.364H807.239V316.906H809.268C809.732 316.906 810.113 316.784 810.411 316.538C810.709 316.293 810.858 315.978 810.858 315.594C810.858 315.189 810.709 314.86 810.411 314.604C810.113 314.349 809.732 314.222 809.268 314.222H807.08V313.128Z" fill="#A3A3A3"/>
<path d="M836.737 320.466V316.906H837.393C837.618 316.701 837.83 316.411 838.029 316.036C838.231 315.658 838.402 315.155 838.541 314.525C838.684 313.892 838.778 313.088 838.825 312.114L839.043 307.818H845.089V316.906H846.262V320.446H845.089V318H837.91V320.466H836.737ZM838.865 316.906H843.916V308.912H840.157L839.998 312.114C839.958 312.856 839.889 313.529 839.789 314.132C839.69 314.732 839.562 315.264 839.406 315.728C839.251 316.189 839.07 316.581 838.865 316.906ZM851.168 318.159C850.432 318.159 849.797 317.997 849.264 317.672C848.734 317.344 848.324 316.886 848.036 316.3C847.751 315.71 847.608 315.024 847.608 314.241C847.608 313.459 847.751 312.77 848.036 312.173C848.324 311.573 848.725 311.106 849.239 310.771C849.756 310.433 850.359 310.264 851.049 310.264C851.446 310.264 851.839 310.33 852.227 310.463C852.615 310.596 852.968 310.811 853.286 311.109C853.604 311.404 853.858 311.795 854.047 312.283C854.235 312.77 854.33 313.37 854.33 314.082V314.58H848.444V313.565H853.137C853.137 313.134 853.051 312.75 852.878 312.412C852.709 312.074 852.467 311.807 852.152 311.612C851.841 311.416 851.473 311.318 851.049 311.318C850.581 311.318 850.177 311.434 849.836 311.666C849.498 311.895 849.237 312.193 849.055 312.561C848.873 312.929 848.782 313.323 848.782 313.744V314.42C848.782 314.997 848.881 315.486 849.08 315.887C849.282 316.285 849.562 316.588 849.92 316.797C850.278 317.002 850.694 317.105 851.168 317.105C851.476 317.105 851.755 317.062 852.003 316.976C852.255 316.886 852.472 316.754 852.654 316.578C852.837 316.399 852.978 316.177 853.077 315.912L854.211 316.23C854.091 316.615 853.891 316.953 853.609 317.244C853.327 317.533 852.979 317.758 852.565 317.92C852.151 318.08 851.685 318.159 851.168 318.159ZM856.115 318V310.364H857.288V313.685H858.064L860.808 310.364H862.319L859.237 314.043L862.359 318H860.848L858.342 314.778H857.288V318H856.115ZM865.881 318.179C865.397 318.179 864.958 318.088 864.564 317.906C864.17 317.72 863.856 317.453 863.624 317.105C863.392 316.754 863.276 316.33 863.276 315.832C863.276 315.395 863.362 315.04 863.535 314.768C863.707 314.493 863.937 314.278 864.226 314.122C864.514 313.966 864.832 313.85 865.18 313.774C865.532 313.695 865.885 313.632 866.239 313.585C866.703 313.526 867.08 313.481 867.368 313.451C867.66 313.418 867.872 313.363 868.004 313.287C868.14 313.211 868.208 313.078 868.208 312.889V312.849C868.208 312.359 868.074 311.978 867.805 311.706C867.54 311.434 867.138 311.298 866.597 311.298C866.037 311.298 865.598 311.421 865.28 311.666C864.962 311.911 864.738 312.173 864.609 312.452L863.495 312.054C863.694 311.59 863.959 311.229 864.29 310.97C864.625 310.708 864.99 310.526 865.384 310.423C865.782 310.317 866.173 310.264 866.558 310.264C866.803 310.264 867.085 310.294 867.403 310.354C867.724 310.41 868.034 310.528 868.332 310.707C868.634 310.886 868.884 311.156 869.083 311.517C869.282 311.878 869.381 312.362 869.381 312.969V318H868.208V316.966H868.148C868.069 317.132 867.936 317.309 867.751 317.498C867.565 317.687 867.318 317.848 867.01 317.98C866.702 318.113 866.326 318.179 865.881 318.179ZM866.06 317.125C866.524 317.125 866.915 317.034 867.234 316.852C867.555 316.669 867.797 316.434 867.96 316.146C868.125 315.857 868.208 315.554 868.208 315.236V314.162C868.158 314.222 868.049 314.276 867.88 314.326C867.714 314.372 867.522 314.414 867.303 314.45C867.088 314.483 866.877 314.513 866.672 314.54C866.47 314.563 866.306 314.583 866.18 314.599C865.875 314.639 865.59 314.704 865.325 314.793C865.063 314.879 864.851 315.01 864.688 315.186C864.529 315.358 864.45 315.594 864.45 315.892C864.45 316.3 864.6 316.608 864.902 316.817C865.207 317.022 865.593 317.125 866.06 317.125ZM877.191 307.5L877.787 308.216C877.555 308.441 877.287 308.599 876.982 308.688C876.677 308.778 876.332 308.832 875.948 308.852C875.563 308.872 875.136 308.892 874.665 308.912C874.135 308.932 873.695 309.061 873.347 309.3C872.999 309.538 872.731 309.883 872.542 310.334C872.353 310.785 872.232 311.338 872.179 311.994H872.279C872.537 311.517 872.895 311.166 873.352 310.94C873.81 310.715 874.3 310.602 874.824 310.602C875.421 310.602 875.958 310.741 876.435 311.02C876.912 311.298 877.29 311.711 877.568 312.258C877.847 312.805 877.986 313.479 877.986 314.281C877.986 315.08 877.843 315.769 877.558 316.349C877.277 316.929 876.881 317.377 876.37 317.692C875.863 318.003 875.268 318.159 874.585 318.159C873.903 318.159 873.304 317.998 872.791 317.677C872.277 317.352 871.878 316.871 871.593 316.235C871.307 315.595 871.165 314.805 871.165 313.864V313.048C871.165 311.348 871.453 310.059 872.03 309.18C872.61 308.302 873.482 307.848 874.645 307.818C875.056 307.805 875.422 307.802 875.744 307.808C876.065 307.815 876.345 307.8 876.584 307.763C876.823 307.727 877.025 307.639 877.191 307.5ZM874.585 317.105C875.046 317.105 875.442 316.989 875.774 316.757C876.108 316.525 876.365 316.199 876.544 315.778C876.723 315.353 876.813 314.855 876.813 314.281C876.813 313.724 876.722 313.25 876.539 312.859C876.36 312.468 876.103 312.17 875.769 311.964C875.434 311.759 875.033 311.656 874.566 311.656C874.224 311.656 873.918 311.714 873.646 311.83C873.374 311.946 873.142 312.117 872.95 312.342C872.758 312.568 872.608 312.843 872.502 313.168C872.4 313.492 872.345 313.864 872.338 314.281C872.338 315.136 872.539 315.821 872.94 316.335C873.341 316.848 873.889 317.105 874.585 317.105ZM879.781 320.864V310.364H880.914V311.577H881.053C881.14 311.444 881.259 311.275 881.411 311.07C881.567 310.861 881.789 310.675 882.078 310.513C882.369 310.347 882.764 310.264 883.261 310.264C883.904 310.264 884.471 310.425 884.961 310.746C885.452 311.068 885.834 311.524 886.11 312.114C886.385 312.704 886.522 313.4 886.522 314.202C886.522 315.01 886.385 315.711 886.11 316.305C885.834 316.895 885.453 317.352 884.966 317.677C884.479 317.998 883.917 318.159 883.281 318.159C882.79 318.159 882.397 318.078 882.102 317.915C881.807 317.75 881.58 317.562 881.421 317.354C881.262 317.142 881.14 316.966 881.053 316.827H880.954V320.864H879.781ZM880.934 314.182C880.934 314.759 881.019 315.267 881.188 315.708C881.357 316.146 881.604 316.489 881.928 316.737C882.253 316.982 882.651 317.105 883.122 317.105C883.612 317.105 884.021 316.976 884.35 316.717C884.681 316.455 884.93 316.104 885.095 315.663C885.264 315.219 885.349 314.725 885.349 314.182C885.349 313.645 885.266 313.161 885.1 312.73C884.938 312.296 884.691 311.953 884.36 311.701C884.031 311.446 883.619 311.318 883.122 311.318C882.644 311.318 882.243 311.439 881.918 311.681C881.594 311.92 881.348 312.254 881.183 312.685C881.017 313.113 880.934 313.612 880.934 314.182ZM889.326 313.128H891.514C892.409 313.128 893.093 313.355 893.567 313.809C894.041 314.263 894.278 314.838 894.278 315.534C894.278 315.991 894.172 316.407 893.96 316.782C893.748 317.153 893.436 317.45 893.025 317.672C892.614 317.891 892.11 318 891.514 318H888.312V310.364H889.485V316.906H891.514C891.978 316.906 892.359 316.784 892.657 316.538C892.955 316.293 893.105 315.978 893.105 315.594C893.105 315.189 892.955 314.86 892.657 314.604C892.359 314.349 891.978 314.222 891.514 314.222H889.326V313.128Z" fill="#A3A3A3"/>
<path d="M4.78072 11.1392C4.19738 11.1392 3.67205 11.0232 3.20472 10.7912C2.73739 10.5592 2.36287 10.241 2.08114 9.83665C1.79942 9.43229 1.6453 8.97159 1.61879 8.45455H2.81197C2.85837 8.91525 3.06718 9.2964 3.43839 9.59801C3.81291 9.89631 4.26036 10.0455 4.78072 10.0455C5.19833 10.0455 5.56954 9.94768 5.89435 9.75213C6.22248 9.55658 6.47934 9.28812 6.66495 8.94673C6.85387 8.60204 6.94833 8.21259 6.94833 7.77841C6.94833 7.33428 6.85056 6.93821 6.65501 6.5902C6.46277 6.23887 6.19762 5.96212 5.85955 5.75994C5.52148 5.55776 5.13536 5.45502 4.70117 5.4517C4.38962 5.44839 4.06978 5.49645 3.74165 5.59588C3.41353 5.692 3.14341 5.81629 2.93129 5.96875L1.77788 5.82955L2.39435 0.818182H7.68413V1.91193H3.42844L3.07049 4.91477H3.13015C3.33896 4.74905 3.60079 4.61151 3.91566 4.50213C4.23053 4.39276 4.55865 4.33807 4.90004 4.33807C5.52314 4.33807 6.0783 4.48722 6.56552 4.78551C7.05605 5.08049 7.44052 5.48485 7.71893 5.99858C8.00065 6.51231 8.14151 7.09896 8.14151 7.75852C8.14151 8.40814 7.99568 8.98816 7.70401 9.49858C7.41566 10.0057 7.01793 10.4067 6.51083 10.7017C6.00373 10.9934 5.42702 11.1392 4.78072 11.1392ZM13.4375 11.1392C12.6884 11.1392 12.0504 10.9354 11.5234 10.5277C10.9964 10.1167 10.5938 9.52178 10.3153 8.7429C10.0369 7.9607 9.89773 7.0161 9.89773 5.90909C9.89773 4.80871 10.0369 3.86908 10.3153 3.0902C10.5971 2.308 11.0014 1.71141 11.5284 1.30043C12.0587 0.886126 12.6951 0.678977 13.4375 0.678977C14.1799 0.678977 14.8146 0.886126 15.3416 1.30043C15.8719 1.71141 16.2763 2.308 16.5547 3.0902C16.8364 3.86908 16.9773 4.80871 16.9773 5.90909C16.9773 7.0161 16.8381 7.9607 16.5597 8.7429C16.2812 9.52178 15.8786 10.1167 15.3516 10.5277C14.8246 10.9354 14.1866 11.1392 13.4375 11.1392ZM13.4375 10.0455C14.1799 10.0455 14.7566 9.6875 15.1676 8.97159C15.5786 8.25568 15.7841 7.23485 15.7841 5.90909C15.7841 5.02746 15.6896 4.27675 15.5007 3.65696C15.3151 3.03717 15.0466 2.56487 14.6953 2.24006C14.3473 1.91525 13.928 1.75284 13.4375 1.75284C12.7017 1.75284 12.1267 2.11577 11.7124 2.84162C11.2981 3.56416 11.0909 4.58665 11.0909 5.90909C11.0909 6.79072 11.1837 7.53977 11.3693 8.15625C11.5549 8.77273 11.8217 9.24171 12.1697 9.56321C12.5211 9.88471 12.9437 10.0455 13.4375 10.0455ZM26.125 11.1392C25.3759 11.1392 24.7379 10.9354 24.2109 10.5277C23.6839 10.1167 23.2813 9.52178 23.0028 8.7429C22.7244 7.9607 22.5852 7.0161 22.5852 5.90909C22.5852 4.80871 22.7244 3.86908 23.0028 3.0902C23.2846 2.308 23.6889 1.71141 24.2159 1.30043C24.7462 0.886126 25.3826 0.678977 26.125 0.678977C26.8674 0.678977 27.5021 0.886126 28.0291 1.30043C28.5594 1.71141 28.9638 2.308 29.2422 3.0902C29.5239 3.86908 29.6648 4.80871 29.6648 5.90909C29.6648 7.0161 29.5256 7.9607 29.2472 8.7429C28.9688 9.52178 28.5661 10.1167 28.0391 10.5277C27.5121 10.9354 26.8741 11.1392 26.125 11.1392ZM26.125 10.0455C26.8674 10.0455 27.4441 9.6875 27.8551 8.97159C28.2661 8.25568 28.4716 7.23485 28.4716 5.90909C28.4716 5.02746 28.3771 4.27675 28.1882 3.65696C28.0026 3.03717 27.7341 2.56487 27.3828 2.24006C27.0348 1.91525 26.6155 1.75284 26.125 1.75284C25.3892 1.75284 24.8142 2.11577 24.3999 2.84162C23.9856 3.56416 23.7784 4.58665 23.7784 5.90909C23.7784 6.79072 23.8712 7.53977 24.0568 8.15625C24.2424 8.77273 24.5092 9.24171 24.8572 9.56321C25.2086 9.88471 25.6312 10.0455 26.125 10.0455ZM34.875 11.1392C34.1259 11.1392 33.4879 10.9354 32.9609 10.5277C32.4339 10.1167 32.0313 9.52178 31.7528 8.7429C31.4744 7.9607 31.3352 7.0161 31.3352 5.90909C31.3352 4.80871 31.4744 3.86908 31.7528 3.0902C32.0346 2.308 32.4389 1.71141 32.9659 1.30043C33.4962 0.886126 34.1326 0.678977 34.875 0.678977C35.6174 0.678977 36.2521 0.886126 36.7791 1.30043C37.3094 1.71141 37.7138 2.308 37.9922 3.0902C38.2739 3.86908 38.4148 4.80871 38.4148 5.90909C38.4148 7.0161 38.2756 7.9607 37.9972 8.7429C37.7188 9.52178 37.3161 10.1167 36.7891 10.5277C36.2621 10.9354 35.6241 11.1392 34.875 11.1392ZM34.875 10.0455C35.6174 10.0455 36.1941 9.6875 36.6051 8.97159C37.0161 8.25568 37.2216 7.23485 37.2216 5.90909C37.2216 5.02746 37.1271 4.27675 36.9382 3.65696C36.7526 3.03717 36.4841 2.56487 36.1328 2.24006C35.7848 1.91525 35.3655 1.75284 34.875 1.75284C34.1392 1.75284 33.5642 2.11577 33.1499 2.84162C32.7356 3.56416 32.5284 4.58665 32.5284 5.90909C32.5284 6.79072 32.6212 7.53977 32.8068 8.15625C32.9924 8.77273 33.2592 9.24171 33.6072 9.56321C33.9586 9.88471 34.3812 10.0455 34.875 10.0455ZM43.625 11.1392C42.8759 11.1392 42.2379 10.9354 41.7109 10.5277C41.1839 10.1167 40.7813 9.52178 40.5028 8.7429C40.2244 7.9607 40.0852 7.0161 40.0852 5.90909C40.0852 4.80871 40.2244 3.86908 40.5028 3.0902C40.7846 2.308 41.1889 1.71141 41.7159 1.30043C42.2462 0.886126 42.8826 0.678977 43.625 0.678977C44.3674 0.678977 45.0021 0.886126 45.5291 1.30043C46.0594 1.71141 46.4638 2.308 46.7422 3.0902C47.0239 3.86908 47.1648 4.80871 47.1648 5.90909C47.1648 7.0161 47.0256 7.9607 46.7472 8.7429C46.4688 9.52178 46.0661 10.1167 45.5391 10.5277C45.0121 10.9354 44.3741 11.1392 43.625 11.1392ZM43.625 10.0455C44.3674 10.0455 44.9441 9.6875 45.3551 8.97159C45.7661 8.25568 45.9716 7.23485 45.9716 5.90909C45.9716 5.02746 45.8771 4.27675 45.6882 3.65696C45.5026 3.03717 45.2341 2.56487 44.8828 2.24006C44.5348 1.91525 44.1155 1.75284 43.625 1.75284C42.8892 1.75284 42.3142 2.11577 41.8999 2.84162C41.4856 3.56416 41.2784 4.58665 41.2784 5.90909C41.2784 6.79072 41.3712 7.53977 41.5568 8.15625C41.7424 8.77273 42.0092 9.24171 42.3572 9.56321C42.7086 9.88471 43.1312 10.0455 43.625 10.0455Z" fill="#A3A3A3"/>
<path d="M0.895419 65.9119V64.8977L5.36985 57.8182H6.10565V59.3892H5.60849L2.22781 64.7386V64.8182H8.25337V65.9119H0.895419ZM5.68803 68V65.6037V65.1314V57.8182H6.86133V68H5.68803ZM13.4375 68.1392C12.6884 68.1392 12.0504 67.9354 11.5234 67.5277C10.9964 67.1167 10.5938 66.5218 10.3153 65.7429C10.0369 64.9607 9.89773 64.0161 9.89773 62.9091C9.89773 61.8087 10.0369 60.8691 10.3153 60.0902C10.5971 59.308 11.0014 58.7114 11.5284 58.3004C12.0587 57.8861 12.6951 57.679 13.4375 57.679C14.1799 57.679 14.8146 57.8861 15.3416 58.3004C15.8719 58.7114 16.2763 59.308 16.5547 60.0902C16.8364 60.8691 16.9773 61.8087 16.9773 62.9091C16.9773 64.0161 16.8381 64.9607 16.5597 65.7429C16.2812 66.5218 15.8786 67.1167 15.3516 67.5277C14.8246 67.9354 14.1866 68.1392 13.4375 68.1392ZM13.4375 67.0455C14.1799 67.0455 14.7566 66.6875 15.1676 65.9716C15.5786 65.2557 15.7841 64.2348 15.7841 62.9091C15.7841 62.0275 15.6896 61.2768 15.5007 60.657C15.3151 60.0372 15.0466 59.5649 14.6953 59.2401C14.3473 58.9152 13.928 58.7528 13.4375 58.7528C12.7017 58.7528 12.1267 59.1158 11.7124 59.8416C11.2981 60.5642 11.0909 61.5866 11.0909 62.9091C11.0909 63.7907 11.1837 64.5398 11.3693 65.1562C11.5549 65.7727 11.8217 66.2417 12.1697 66.5632C12.5211 66.8847 12.9437 67.0455 13.4375 67.0455ZM26.125 68.1392C25.3759 68.1392 24.7379 67.9354 24.2109 67.5277C23.6839 67.1167 23.2813 66.5218 23.0028 65.7429C22.7244 64.9607 22.5852 64.0161 22.5852 62.9091C22.5852 61.8087 22.7244 60.8691 23.0028 60.0902C23.2846 59.308 23.6889 58.7114 24.2159 58.3004C24.7462 57.8861 25.3826 57.679 26.125 57.679C26.8674 57.679 27.5021 57.8861 28.0291 58.3004C28.5594 58.7114 28.9638 59.308 29.2422 60.0902C29.5239 60.8691 29.6648 61.8087 29.6648 62.9091C29.6648 64.0161 29.5256 64.9607 29.2472 65.7429C28.9688 66.5218 28.5661 67.1167 28.0391 67.5277C27.5121 67.9354 26.8741 68.1392 26.125 68.1392ZM26.125 67.0455C26.8674 67.0455 27.4441 66.6875 27.8551 65.9716C28.2661 65.2557 28.4716 64.2348 28.4716 62.9091C28.4716 62.0275 28.3771 61.2768 28.1882 60.657C28.0026 60.0372 27.7341 59.5649 27.3828 59.2401C27.0348 58.9152 26.6155 58.7528 26.125 58.7528C25.3892 58.7528 24.8142 59.1158 24.3999 59.8416C23.9856 60.5642 23.7784 61.5866 23.7784 62.9091C23.7784 63.7907 23.8712 64.5398 24.0568 65.1562C24.2424 65.7727 24.5092 66.2417 24.8572 66.5632C25.2086 66.8847 25.6312 67.0455 26.125 67.0455ZM34.875 68.1392C34.1259 68.1392 33.4879 67.9354 32.9609 67.5277C32.4339 67.1167 32.0313 66.5218 31.7528 65.7429C31.4744 64.9607 31.3352 64.0161 31.3352 62.9091C31.3352 61.8087 31.4744 60.8691 31.7528 60.0902C32.0346 59.308 32.4389 58.7114 32.9659 58.3004C33.4962 57.8861 34.1326 57.679 34.875 57.679C35.6174 57.679 36.2521 57.8861 36.7791 58.3004C37.3094 58.7114 37.7138 59.308 37.9922 60.0902C38.2739 60.8691 38.4148 61.8087 38.4148 62.9091C38.4148 64.0161 38.2756 64.9607 37.9972 65.7429C37.7188 66.5218 37.3161 67.1167 36.7891 67.5277C36.2621 67.9354 35.6241 68.1392 34.875 68.1392ZM34.875 67.0455C35.6174 67.0455 36.1941 66.6875 36.6051 65.9716C37.0161 65.2557 37.2216 64.2348 37.2216 62.9091C37.2216 62.0275 37.1271 61.2768 36.9382 60.657C36.7526 60.0372 36.4841 59.5649 36.1328 59.2401C35.7848 58.9152 35.3655 58.7528 34.875 58.7528C34.1392 58.7528 33.5642 59.1158 33.1499 59.8416C32.7356 60.5642 32.5284 61.5866 32.5284 62.9091C32.5284 63.7907 32.6212 64.5398 32.8068 65.1562C32.9924 65.7727 33.2592 66.2417 33.6072 66.5632C33.9586 66.8847 34.3812 67.0455 34.875 67.0455ZM43.625 68.1392C42.8759 68.1392 42.2379 67.9354 41.7109 67.5277C41.1839 67.1167 40.7813 66.5218 40.5028 65.7429C40.2244 64.9607 40.0852 64.0161 40.0852 62.9091C40.0852 61.8087 40.2244 60.8691 40.5028 60.0902C40.7846 59.308 41.1889 58.7114 41.7159 58.3004C42.2462 57.8861 42.8826 57.679 43.625 57.679C44.3674 57.679 45.0021 57.8861 45.5291 58.3004C46.0594 58.7114 46.4638 59.308 46.7422 60.0902C47.0239 60.8691 47.1648 61.8087 47.1648 62.9091C47.1648 64.0161 47.0256 64.9607 46.7472 65.7429C46.4688 66.5218 46.0661 67.1167 45.5391 67.5277C45.0121 67.9354 44.3741 68.1392 43.625 68.1392ZM43.625 67.0455C44.3674 67.0455 44.9441 66.6875 45.3551 65.9716C45.7661 65.2557 45.9716 64.2348 45.9716 62.9091C45.9716 62.0275 45.8771 61.2768 45.6882 60.657C45.5026 60.0372 45.2341 59.5649 44.8828 59.2401C44.5348 58.9152 44.1155 58.7528 43.625 58.7528C42.8892 58.7528 42.3142 59.1158 41.8999 59.8416C41.4856 60.5642 41.2784 61.5866 41.2784 62.9091C41.2784 63.7907 41.3712 64.5398 41.5568 65.1562C41.7424 65.7727 42.0092 66.2417 42.3572 66.5632C42.7086 66.8847 43.1312 67.0455 43.625 67.0455Z" fill="#A3A3A3"/>
<path d="M4.64276 125.139C3.98651 125.139 3.40152 125.027 2.88778 124.801C2.37737 124.576 1.97135 124.263 1.66974 123.862C1.37145 123.457 1.20904 122.988 1.18253 122.455H2.43537C2.46188 122.783 2.57457 123.066 2.77344 123.305C2.9723 123.54 3.23248 123.722 3.55398 123.852C3.87547 123.981 4.23177 124.045 4.62287 124.045C5.06037 124.045 5.44815 123.969 5.78622 123.817C6.12429 123.664 6.38944 123.452 6.58168 123.18C6.77391 122.909 6.87003 122.594 6.87003 122.236C6.87003 121.861 6.77723 121.531 6.59162 121.246C6.40601 120.958 6.13423 120.733 5.77628 120.57C5.41832 120.408 4.98082 120.327 4.46378 120.327H3.64844V119.233H4.46378C4.86813 119.233 5.22277 119.16 5.5277 119.014C5.83594 118.868 6.07623 118.663 6.24858 118.398C6.42424 118.133 6.51207 117.821 6.51207 117.463C6.51207 117.118 6.43584 116.818 6.28338 116.563C6.13092 116.308 5.91548 116.109 5.63707 115.967C5.36198 115.824 5.03717 115.753 4.66264 115.753C4.31132 115.753 3.97988 115.817 3.66832 115.947C3.36009 116.073 3.10819 116.257 2.91264 116.499C2.71709 116.737 2.61103 117.026 2.59446 117.364H1.40128C1.42116 116.83 1.58191 116.363 1.88352 115.962C2.18513 115.557 2.57955 115.242 3.06676 115.017C3.55729 114.792 4.09588 114.679 4.68253 114.679C5.31226 114.679 5.85251 114.807 6.30327 115.062C6.75402 115.314 7.10038 115.647 7.34233 116.061C7.58428 116.475 7.70526 116.923 7.70526 117.403C7.70526 117.977 7.55445 118.466 7.25284 118.87C6.95455 119.274 6.54853 119.554 6.0348 119.71V119.79C6.67779 119.896 7.17992 120.169 7.54119 120.61C7.90246 121.048 8.0831 121.589 8.0831 122.236C8.0831 122.789 7.93229 123.286 7.63068 123.727C7.33239 124.165 6.92472 124.509 6.40767 124.761C5.89063 125.013 5.30232 125.139 4.64276 125.139ZM13.4375 125.139C12.6884 125.139 12.0504 124.935 11.5234 124.528C10.9964 124.117 10.5938 123.522 10.3153 122.743C10.0369 121.961 9.89773 121.016 9.89773 119.909C9.89773 118.809 10.0369 117.869 10.3153 117.09C10.5971 116.308 11.0014 115.711 11.5284 115.3C12.0587 114.886 12.6951 114.679 13.4375 114.679C14.1799 114.679 14.8146 114.886 15.3416 115.3C15.8719 115.711 16.2763 116.308 16.5547 117.09C16.8364 117.869 16.9773 118.809 16.9773 119.909C16.9773 121.016 16.8381 121.961 16.5597 122.743C16.2812 123.522 15.8786 124.117 15.3516 124.528C14.8246 124.935 14.1866 125.139 13.4375 125.139ZM13.4375 124.045C14.1799 124.045 14.7566 123.687 15.1676 122.972C15.5786 122.256 15.7841 121.235 15.7841 119.909C15.7841 119.027 15.6896 118.277 15.5007 117.657C15.3151 117.037 15.0466 116.565 14.6953 116.24C14.3473 115.915 13.928 115.753 13.4375 115.753C12.7017 115.753 12.1267 116.116 11.7124 116.842C11.2981 117.564 11.0909 118.587 11.0909 119.909C11.0909 120.791 11.1837 121.54 11.3693 122.156C11.5549 122.773 11.8217 123.242 12.1697 123.563C12.5211 123.885 12.9437 124.045 13.4375 124.045ZM26.125 125.139C25.3759 125.139 24.7379 124.935 24.2109 124.528C23.6839 124.117 23.2813 123.522 23.0028 122.743C22.7244 121.961 22.5852 121.016 22.5852 119.909C22.5852 118.809 22.7244 117.869 23.0028 117.09C23.2846 116.308 23.6889 115.711 24.2159 115.3C24.7462 114.886 25.3826 114.679 26.125 114.679C26.8674 114.679 27.5021 114.886 28.0291 115.3C28.5594 115.711 28.9638 116.308 29.2422 117.09C29.5239 117.869 29.6648 118.809 29.6648 119.909C29.6648 121.016 29.5256 121.961 29.2472 122.743C28.9688 123.522 28.5661 124.117 28.0391 124.528C27.5121 124.935 26.8741 125.139 26.125 125.139ZM26.125 124.045C26.8674 124.045 27.4441 123.687 27.8551 122.972C28.2661 122.256 28.4716 121.235 28.4716 119.909C28.4716 119.027 28.3771 118.277 28.1882 117.657C28.0026 117.037 27.7341 116.565 27.3828 116.24C27.0348 115.915 26.6155 115.753 26.125 115.753C25.3892 115.753 24.8142 116.116 24.3999 116.842C23.9856 117.564 23.7784 118.587 23.7784 119.909C23.7784 120.791 23.8712 121.54 24.0568 122.156C24.2424 122.773 24.5092 123.242 24.8572 123.563C25.2086 123.885 25.6312 124.045 26.125 124.045ZM34.875 125.139C34.1259 125.139 33.4879 124.935 32.9609 124.528C32.4339 124.117 32.0313 123.522 31.7528 122.743C31.4744 121.961 31.3352 121.016 31.3352 119.909C31.3352 118.809 31.4744 117.869 31.7528 117.09C32.0346 116.308 32.4389 115.711 32.9659 115.3C33.4962 114.886 34.1326 114.679 34.875 114.679C35.6174 114.679 36.2521 114.886 36.7791 115.3C37.3094 115.711 37.7138 116.308 37.9922 117.09C38.2739 117.869 38.4148 118.809 38.4148 119.909C38.4148 121.016 38.2756 121.961 37.9972 122.743C37.7188 123.522 37.3161 124.117 36.7891 124.528C36.2621 124.935 35.6241 125.139 34.875 125.139ZM34.875 124.045C35.6174 124.045 36.1941 123.687 36.6051 122.972C37.0161 122.256 37.2216 121.235 37.2216 119.909C37.2216 119.027 37.1271 118.277 36.9382 117.657C36.7526 117.037 36.4841 116.565 36.1328 116.24C35.7848 115.915 35.3655 115.753 34.875 115.753C34.1392 115.753 33.5642 116.116 33.1499 116.842C32.7356 117.564 32.5284 118.587 32.5284 119.909C32.5284 120.791 32.6212 121.54 32.8068 122.156C32.9924 122.773 33.2592 123.242 33.6072 123.563C33.9586 123.885 34.3812 124.045 34.875 124.045ZM43.625 125.139C42.8759 125.139 42.2379 124.935 41.7109 124.528C41.1839 124.117 40.7813 123.522 40.5028 122.743C40.2244 121.961 40.0852 121.016 40.0852 119.909C40.0852 118.809 40.2244 117.869 40.5028 117.09C40.7846 116.308 41.1889 115.711 41.7159 115.3C42.2462 114.886 42.8826 114.679 43.625 114.679C44.3674 114.679 45.0021 114.886 45.5291 115.3C46.0594 115.711 46.4638 116.308 46.7422 117.09C47.0239 117.869 47.1648 118.809 47.1648 119.909C47.1648 121.016 47.0256 121.961 46.7472 122.743C46.4688 123.522 46.0661 124.117 45.5391 124.528C45.0121 124.935 44.3741 125.139 43.625 125.139ZM43.625 124.045C44.3674 124.045 44.9441 123.687 45.3551 122.972C45.7661 122.256 45.9716 121.235 45.9716 119.909C45.9716 119.027 45.8771 118.277 45.6882 117.657C45.5026 117.037 45.2341 116.565 44.8828 116.24C44.5348 115.915 44.1155 115.753 43.625 115.753C42.8892 115.753 42.3142 116.116 41.8999 116.842C41.4856 117.564 41.2784 118.587 41.2784 119.909C41.2784 120.791 41.3712 121.54 41.5568 122.156C41.7424 122.773 42.0092 123.242 42.3572 123.563C42.7086 123.885 43.1312 124.045 43.625 124.045Z" fill="#A3A3A3"/>
<path d="M1.63991 182V181.105L5.00071 177.426C5.39512 176.995 5.71993 176.621 5.97514 176.303C6.23035 175.981 6.41927 175.679 6.5419 175.398C6.66785 175.113 6.73082 174.814 6.73082 174.503C6.73082 174.145 6.64465 173.835 6.4723 173.573C6.30327 173.311 6.07126 173.109 5.77628 172.967C5.4813 172.824 5.14986 172.753 4.78196 172.753C4.39086 172.753 4.04948 172.834 3.75781 172.996C3.46946 173.156 3.24574 173.379 3.08665 173.668C2.93087 173.956 2.85298 174.294 2.85298 174.682H1.67969C1.67969 174.085 1.81723 173.562 2.09233 173.111C2.36742 172.66 2.74195 172.309 3.21591 172.057C3.69318 171.805 4.22846 171.679 4.82173 171.679C5.41832 171.679 5.94697 171.805 6.40767 172.057C6.86837 172.309 7.22964 172.648 7.49148 173.076C7.75331 173.504 7.88423 173.979 7.88423 174.503C7.88423 174.877 7.81629 175.244 7.6804 175.602C7.54782 175.956 7.31581 176.352 6.98438 176.79C6.65625 177.224 6.20052 177.754 5.61719 178.381L3.33026 180.827V180.906H8.06321V182H1.63991ZM13.4375 182.139C12.6884 182.139 12.0504 181.935 11.5234 181.528C10.9964 181.117 10.5938 180.522 10.3153 179.743C10.0369 178.961 9.89773 178.016 9.89773 176.909C9.89773 175.809 10.0369 174.869 10.3153 174.09C10.5971 173.308 11.0014 172.711 11.5284 172.3C12.0587 171.886 12.6951 171.679 13.4375 171.679C14.1799 171.679 14.8146 171.886 15.3416 172.3C15.8719 172.711 16.2763 173.308 16.5547 174.09C16.8364 174.869 16.9773 175.809 16.9773 176.909C16.9773 178.016 16.8381 178.961 16.5597 179.743C16.2812 180.522 15.8786 181.117 15.3516 181.528C14.8246 181.935 14.1866 182.139 13.4375 182.139ZM13.4375 181.045C14.1799 181.045 14.7566 180.687 15.1676 179.972C15.5786 179.256 15.7841 178.235 15.7841 176.909C15.7841 176.027 15.6896 175.277 15.5007 174.657C15.3151 174.037 15.0466 173.565 14.6953 173.24C14.3473 172.915 13.928 172.753 13.4375 172.753C12.7017 172.753 12.1267 173.116 11.7124 173.842C11.2981 174.564 11.0909 175.587 11.0909 176.909C11.0909 177.791 11.1837 178.54 11.3693 179.156C11.5549 179.773 11.8217 180.242 12.1697 180.563C12.5211 180.885 12.9437 181.045 13.4375 181.045ZM26.125 182.139C25.3759 182.139 24.7379 181.935 24.2109 181.528C23.6839 181.117 23.2813 180.522 23.0028 179.743C22.7244 178.961 22.5852 178.016 22.5852 176.909C22.5852 175.809 22.7244 174.869 23.0028 174.09C23.2846 173.308 23.6889 172.711 24.2159 172.3C24.7462 171.886 25.3826 171.679 26.125 171.679C26.8674 171.679 27.5021 171.886 28.0291 172.3C28.5594 172.711 28.9638 173.308 29.2422 174.09C29.5239 174.869 29.6648 175.809 29.6648 176.909C29.6648 178.016 29.5256 178.961 29.2472 179.743C28.9688 180.522 28.5661 181.117 28.0391 181.528C27.5121 181.935 26.8741 182.139 26.125 182.139ZM26.125 181.045C26.8674 181.045 27.4441 180.687 27.8551 179.972C28.2661 179.256 28.4716 178.235 28.4716 176.909C28.4716 176.027 28.3771 175.277 28.1882 174.657C28.0026 174.037 27.7341 173.565 27.3828 173.24C27.0348 172.915 26.6155 172.753 26.125 172.753C25.3892 172.753 24.8142 173.116 24.3999 173.842C23.9856 174.564 23.7784 175.587 23.7784 176.909C23.7784 177.791 23.8712 178.54 24.0568 179.156C24.2424 179.773 24.5092 180.242 24.8572 180.563C25.2086 180.885 25.6312 181.045 26.125 181.045ZM34.875 182.139C34.1259 182.139 33.4879 181.935 32.9609 181.528C32.4339 181.117 32.0313 180.522 31.7528 179.743C31.4744 178.961 31.3352 178.016 31.3352 176.909C31.3352 175.809 31.4744 174.869 31.7528 174.09C32.0346 173.308 32.4389 172.711 32.9659 172.3C33.4962 171.886 34.1326 171.679 34.875 171.679C35.6174 171.679 36.2521 171.886 36.7791 172.3C37.3094 172.711 37.7138 173.308 37.9922 174.09C38.2739 174.869 38.4148 175.809 38.4148 176.909C38.4148 178.016 38.2756 178.961 37.9972 179.743C37.7188 180.522 37.3161 181.117 36.7891 181.528C36.2621 181.935 35.6241 182.139 34.875 182.139ZM34.875 181.045C35.6174 181.045 36.1941 180.687 36.6051 179.972C37.0161 179.256 37.2216 178.235 37.2216 176.909C37.2216 176.027 37.1271 175.277 36.9382 174.657C36.7526 174.037 36.4841 173.565 36.1328 173.24C35.7848 172.915 35.3655 172.753 34.875 172.753C34.1392 172.753 33.5642 173.116 33.1499 173.842C32.7356 174.564 32.5284 175.587 32.5284 176.909C32.5284 177.791 32.6212 178.54 32.8068 179.156C32.9924 179.773 33.2592 180.242 33.6072 180.563C33.9586 180.885 34.3812 181.045 34.875 181.045ZM43.625 182.139C42.8759 182.139 42.2379 181.935 41.7109 181.528C41.1839 181.117 40.7813 180.522 40.5028 179.743C40.2244 178.961 40.0852 178.016 40.0852 176.909C40.0852 175.809 40.2244 174.869 40.5028 174.09C40.7846 173.308 41.1889 172.711 41.7159 172.3C42.2462 171.886 42.8826 171.679 43.625 171.679C44.3674 171.679 45.0021 171.886 45.5291 172.3C46.0594 172.711 46.4638 173.308 46.7422 174.09C47.0239 174.869 47.1648 175.809 47.1648 176.909C47.1648 178.016 47.0256 178.961 46.7472 179.743C46.4688 180.522 46.0661 181.117 45.5391 181.528C45.0121 181.935 44.3741 182.139 43.625 182.139ZM43.625 181.045C44.3674 181.045 44.9441 180.687 45.3551 179.972C45.7661 179.256 45.9716 178.235 45.9716 176.909C45.9716 176.027 45.8771 175.277 45.6882 174.657C45.5026 174.037 45.2341 173.565 44.8828 173.24C44.5348 172.915 44.1155 172.753 43.625 172.753C42.8892 172.753 42.3142 173.116 41.8999 173.842C41.4856 174.564 41.2784 175.587 41.2784 176.909C41.2784 177.791 41.3712 178.54 41.5568 179.156C41.7424 179.773 42.0092 180.242 42.3572 180.563C42.7086 180.885 43.1312 181.045 43.625 181.045Z" fill="#A3A3A3"/>
<path d="M7.18821 228.818V239H5.95526V230.111H5.8956L3.4098 231.761V230.509L5.95526 228.818H7.18821ZM13.4375 239.139C12.6884 239.139 12.0504 238.935 11.5234 238.528C10.9964 238.117 10.5938 237.522 10.3153 236.743C10.0369 235.961 9.89773 235.016 9.89773 233.909C9.89773 232.809 10.0369 231.869 10.3153 231.09C10.5971 230.308 11.0014 229.711 11.5284 229.3C12.0587 228.886 12.6951 228.679 13.4375 228.679C14.1799 228.679 14.8146 228.886 15.3416 229.3C15.8719 229.711 16.2763 230.308 16.5547 231.09C16.8364 231.869 16.9773 232.809 16.9773 233.909C16.9773 235.016 16.8381 235.961 16.5597 236.743C16.2812 237.522 15.8786 238.117 15.3516 238.528C14.8246 238.935 14.1866 239.139 13.4375 239.139ZM13.4375 238.045C14.1799 238.045 14.7566 237.687 15.1676 236.972C15.5786 236.256 15.7841 235.235 15.7841 233.909C15.7841 233.027 15.6896 232.277 15.5007 231.657C15.3151 231.037 15.0466 230.565 14.6953 230.24C14.3473 229.915 13.928 229.753 13.4375 229.753C12.7017 229.753 12.1267 230.116 11.7124 230.842C11.2981 231.564 11.0909 232.587 11.0909 233.909C11.0909 234.791 11.1837 235.54 11.3693 236.156C11.5549 236.773 11.8217 237.242 12.1697 237.563C12.5211 237.885 12.9437 238.045 13.4375 238.045ZM26.125 239.139C25.3759 239.139 24.7379 238.935 24.2109 238.528C23.6839 238.117 23.2813 237.522 23.0028 236.743C22.7244 235.961 22.5852 235.016 22.5852 233.909C22.5852 232.809 22.7244 231.869 23.0028 231.09C23.2846 230.308 23.6889 229.711 24.2159 229.3C24.7462 228.886 25.3826 228.679 26.125 228.679C26.8674 228.679 27.5021 228.886 28.0291 229.3C28.5594 229.711 28.9638 230.308 29.2422 231.09C29.5239 231.869 29.6648 232.809 29.6648 233.909C29.6648 235.016 29.5256 235.961 29.2472 236.743C28.9688 237.522 28.5661 238.117 28.0391 238.528C27.5121 238.935 26.8741 239.139 26.125 239.139ZM26.125 238.045C26.8674 238.045 27.4441 237.687 27.8551 236.972C28.2661 236.256 28.4716 235.235 28.4716 233.909C28.4716 233.027 28.3771 232.277 28.1882 231.657C28.0026 231.037 27.7341 230.565 27.3828 230.24C27.0348 229.915 26.6155 229.753 26.125 229.753C25.3892 229.753 24.8142 230.116 24.3999 230.842C23.9856 231.564 23.7784 232.587 23.7784 233.909C23.7784 234.791 23.8712 235.54 24.0568 236.156C24.2424 236.773 24.5092 237.242 24.8572 237.563C25.2086 237.885 25.6312 238.045 26.125 238.045ZM34.875 239.139C34.1259 239.139 33.4879 238.935 32.9609 238.528C32.4339 238.117 32.0313 237.522 31.7528 236.743C31.4744 235.961 31.3352 235.016 31.3352 233.909C31.3352 232.809 31.4744 231.869 31.7528 231.09C32.0346 230.308 32.4389 229.711 32.9659 229.3C33.4962 228.886 34.1326 228.679 34.875 228.679C35.6174 228.679 36.2521 228.886 36.7791 229.3C37.3094 229.711 37.7138 230.308 37.9922 231.09C38.2739 231.869 38.4148 232.809 38.4148 233.909C38.4148 235.016 38.2756 235.961 37.9972 236.743C37.7188 237.522 37.3161 238.117 36.7891 238.528C36.2621 238.935 35.6241 239.139 34.875 239.139ZM34.875 238.045C35.6174 238.045 36.1941 237.687 36.6051 236.972C37.0161 236.256 37.2216 235.235 37.2216 233.909C37.2216 233.027 37.1271 232.277 36.9382 231.657C36.7526 231.037 36.4841 230.565 36.1328 230.24C35.7848 229.915 35.3655 229.753 34.875 229.753C34.1392 229.753 33.5642 230.116 33.1499 230.842C32.7356 231.564 32.5284 232.587 32.5284 233.909C32.5284 234.791 32.6212 235.54 32.8068 236.156C32.9924 236.773 33.2592 237.242 33.6072 237.563C33.9586 237.885 34.3812 238.045 34.875 238.045ZM43.625 239.139C42.8759 239.139 42.2379 238.935 41.7109 238.528C41.1839 238.117 40.7813 237.522 40.5028 236.743C40.2244 235.961 40.0852 235.016 40.0852 233.909C40.0852 232.809 40.2244 231.869 40.5028 231.09C40.7846 230.308 41.1889 229.711 41.7159 229.3C42.2462 228.886 42.8826 228.679 43.625 228.679C44.3674 228.679 45.0021 228.886 45.5291 229.3C46.0594 229.711 46.4638 230.308 46.7422 231.09C47.0239 231.869 47.1648 232.809 47.1648 233.909C47.1648 235.016 47.0256 235.961 46.7472 236.743C46.4688 237.522 46.0661 238.117 45.5391 238.528C45.0121 238.935 44.3741 239.139 43.625 239.139ZM43.625 238.045C44.3674 238.045 44.9441 237.687 45.3551 236.972C45.7661 236.256 45.9716 235.235 45.9716 233.909C45.9716 233.027 45.8771 232.277 45.6882 231.657C45.5026 231.037 45.2341 230.565 44.8828 230.24C44.5348 229.915 44.1155 229.753 43.625 229.753C42.8892 229.753 42.3142 230.116 41.8999 230.842C41.4856 231.564 41.2784 232.587 41.2784 233.909C41.2784 234.791 41.3712 235.54 41.5568 236.156C41.7424 236.773 42.0092 237.242 42.3572 237.563C42.7086 237.885 43.1312 238.045 43.625 238.045Z" fill="#A3A3A3"/>
<path d="M43.625 300.139C42.876 300.139 42.2379 299.935 41.7109 299.528C41.184 299.117 40.7813 298.522 40.5029 297.743C40.2244 296.961 40.0852 296.016 40.0852 294.909C40.0852 293.809 40.2244 292.869 40.5029 292.09C40.7846 291.308 41.1889 290.711 41.7159 290.3C42.2462 289.886 42.8826 289.679 43.625 289.679C44.3674 289.679 45.0021 289.886 45.5291 290.3C46.0594 290.711 46.4638 291.308 46.7422 292.09C47.0239 292.869 47.1648 293.809 47.1648 294.909C47.1648 296.016 47.0256 296.961 46.7472 297.743C46.4688 298.522 46.0661 299.117 45.5391 299.528C45.0121 299.935 44.3741 300.139 43.625 300.139ZM43.625 299.045C44.3674 299.045 44.9441 298.687 45.3551 297.972C45.7661 297.256 45.9716 296.235 45.9716 294.909C45.9716 294.027 45.8771 293.277 45.6882 292.657C45.5026 292.037 45.2341 291.565 44.8828 291.24C44.5348 290.915 44.1155 290.753 43.625 290.753C42.8892 290.753 42.3142 291.116 41.8999 291.842C41.4856 292.564 41.2784 293.587 41.2784 294.909C41.2784 295.791 41.3712 296.54 41.5568 297.156C41.7424 297.773 42.0092 298.242 42.3573 298.563C42.7086 298.885 43.1312 299.045 43.625 299.045Z" fill="#A3A3A3"/>
<path d="M57.1844 85.14C57.1844 85.14 102.881 171.927 133.346 205.699C163.81 239.471 179.042 254 209.507 254C239.971 254 255.204 41.7292 285.668 41.7292C316.133 41.7292 331.365 60.955 361.829 60.955C392.294 60.955 407.526 6 437.991 6C468.455 6 483.687 246.722 514.152 246.722C544.616 246.722 559.849 246.722 590.313 239.727C620.778 232.733 636.01 194.3 666.474 194.3C696.939 194.3 712.171 251.984 742.636 251.984C773.1 251.984 788.332 43.689 818.797 29.2902C849.261 14.8914 894.958 14.8914 894.958 14.8914" stroke="#6DFC6B" stroke-width="2"/>
<path d="M896 268C896 268 850.246 228.799 819.744 198.999C789.242 169.199 773.99 119 743.488 119C712.986 119 697.734 194.564 667.232 222.905C636.73 251.246 621.479 260.704 590.976 260.704C560.474 260.704 545.223 143.911 514.72 143.911C484.218 143.911 468.967 159.373 438.464 184.073C407.962 208.774 392.711 267.413 362.208 267.413C331.706 267.413 316.455 181.059 285.952 180.344C255.45 179.629 240.199 179.629 209.696 179.629C179.194 179.629 163.943 205.807 133.44 205.807C102.938 205.807 57.1844 145.277 57.1844 145.277" stroke="#FD3124" stroke-width="2"/>
</svg>
